<svg width="836" height="267" viewBox="0 0 836 267" fill="none" xmlns="http://www.w3.org/2000/svg">
<path d="M1453.38 231.562H0.424561V245.718H1453.38V231.562Z" fill="#2D515E"/>
<path d="M1453.38 231.562H0.424561V235.029H1453.38V231.562Z" fill="#26444F"/>
<path d="M1453.38 228.096H0.424561V232.14H1453.38V228.096Z" fill="#89A9B5"/>
<path d="M44.5848 245.718H11.9697V266.518H44.5848V245.718Z" fill="#345F6F"/>
<path d="M44.5848 245.718H11.9697L14.5674 252.651C15.4333 254.673 17.4537 256.118 19.7627 256.118H36.5032C38.8122 256.118 41.1213 254.673 41.6985 252.651L44.5848 245.718Z" fill="#89A9B5"/>
<path d="M34.1943 246.585H22.3606V250.34H34.1943V246.585Z" fill="#2D515E"/>
<path d="M31.5965 243.118H24.958V246.585H31.5965V243.118Z" fill="#407586"/>
<path d="M126.555 245.718H93.9402V266.518H126.555V245.718Z" fill="#345F6F"/>
<path d="M126.845 245.718H94.2295L96.8272 252.651C97.693 254.673 99.7134 256.118 102.022 256.118H118.763C121.072 256.118 123.381 254.673 123.958 252.651L126.845 245.718Z" fill="#89A9B5"/>
<path d="M116.165 246.585H104.331V250.34H116.165V246.585Z" fill="#2D515E"/>
<path d="M113.567 243.118H106.928V246.585H113.567V243.118Z" fill="#407586"/>
<path d="M208.526 245.718H175.911V266.518H208.526V245.718Z" fill="#345F6F"/>
<path d="M208.816 245.718H176.2L178.798 252.651C179.664 254.673 181.684 256.118 183.993 256.118H200.734C203.043 256.118 205.352 254.673 205.929 252.651L208.816 245.718Z" fill="#89A9B5"/>
<path d="M198.424 246.585H186.59V250.34H198.424V246.585Z" fill="#2D515E"/>
<path d="M195.538 243.118H188.899V246.585H195.538V243.118Z" fill="#407586"/>
<path d="M290.786 245.718H258.17V266.518H290.786V245.718Z" fill="#345F6F"/>
<path d="M290.786 245.718H258.17L260.768 252.651C261.634 254.673 263.654 256.118 265.963 256.118H282.704C285.013 256.118 287.322 254.673 287.899 252.651L290.786 245.718Z" fill="#89A9B5"/>
<path d="M280.395 246.585H268.562V250.34H280.395V246.585Z" fill="#2D515E"/>
<path d="M277.797 243.118H271.159V246.585H277.797V243.118Z" fill="#407586"/>
<path d="M372.756 245.718H340.141V266.518H372.756V245.718Z" fill="#345F6F"/>
<path d="M372.756 245.718H340.141L342.739 252.651C343.605 254.673 345.625 256.118 347.934 256.118H364.675C366.984 256.118 369.293 254.673 369.87 252.651L372.756 245.718Z" fill="#89A9B5"/>
<path d="M362.366 246.585H350.532V250.34H362.366V246.585Z" fill="#2D515E"/>
<path d="M359.768 243.118H353.129V246.585H359.768V243.118Z" fill="#407586"/>
<path d="M454.727 245.718H422.112V266.518H454.727V245.718Z" fill="#345F6F"/>
<path d="M454.727 245.718H422.112L424.71 252.651C425.576 254.673 427.596 256.118 429.905 256.118H446.646C448.955 256.118 451.264 254.673 451.841 252.651L454.727 245.718Z" fill="#89A9B5"/>
<path d="M444.337 246.585H432.503V250.34H444.337V246.585Z" fill="#2D515E"/>
<path d="M441.739 243.118H435.1V246.585H441.739V243.118Z" fill="#407586"/>
<path d="M536.698 245.718H504.083V266.518H536.698V245.718Z" fill="#345F6F"/>
<path d="M536.987 245.718H504.372L506.969 252.651C507.835 254.673 509.856 256.118 512.165 256.118H528.905C531.214 256.118 533.523 254.673 534.1 252.651L536.987 245.718Z" fill="#89A9B5"/>
<path d="M526.596 246.585H514.762V250.34H526.596V246.585Z" fill="#2D515E"/>
<path d="M523.709 243.118H517.071V246.585H523.709V243.118Z" fill="#407586"/>
<path d="M618.957 245.718H586.342V266.518H618.957V245.718Z" fill="#345F6F"/>
<path d="M618.957 245.718H586.342L588.939 252.651C589.805 254.673 591.826 256.118 594.135 256.118H610.875C613.184 256.118 615.493 254.673 616.071 252.651L618.957 245.718Z" fill="#89A9B5"/>
<path d="M608.566 246.585H596.733V250.34H608.566V246.585Z" fill="#2D515E"/>
<path d="M605.969 243.118H599.33V246.585H605.969V243.118Z" fill="#407586"/>
<path d="M700.928 245.718H668.312V266.518H700.928V245.718Z" fill="#345F6F"/>
<path d="M700.928 245.718H668.312L670.91 252.651C671.776 254.673 673.796 256.118 676.106 256.118H692.846C695.155 256.118 697.464 254.673 698.041 252.651L700.928 245.718Z" fill="#89A9B5"/>
<path d="M690.537 246.585H678.703V250.34H690.537V246.585Z" fill="#2D515E"/>
<path d="M687.939 243.118H681.301V246.585H687.939V243.118Z" fill="#407586"/>
<path d="M782.899 245.718H750.283V266.518H782.899V245.718Z" fill="#345F6F"/>
<path d="M782.899 245.718H750.283L752.881 252.651C753.747 254.673 755.767 256.118 758.076 256.118H774.817C777.126 256.118 779.435 254.673 780.012 252.651L782.899 245.718Z" fill="#89A9B5"/>
<path d="M772.508 246.585H760.674V250.34H772.508V246.585Z" fill="#2D515E"/>
<path d="M769.91 243.118H763.272V246.585H769.91V243.118Z" fill="#407586"/>
<path d="M864.869 245.718H832.254V266.518H864.869V245.718Z" fill="#345F6F"/>
<path d="M865.158 245.718H832.542L835.14 252.651C836.006 254.673 838.026 256.118 840.336 256.118H857.076C859.385 256.118 861.694 254.673 862.271 252.651L865.158 245.718Z" fill="#89A9B5"/>
<path d="M565.176 171.8H524.768V182.778H565.176V171.8Z" fill="#172B33"/>
<path d="M524.48 197.222H521.593V157.356H524.48L527.943 177.578L524.48 197.222Z" fill="#172B33"/>
<path d="M609.625 178.733H556.517L582.494 204.733H609.625H636.756L662.733 178.733H609.625Z" fill="#172B33"/>
<path d="M568.928 228.422C581.521 228.422 591.73 218.204 591.73 205.6C591.73 192.996 581.521 182.778 568.928 182.778C556.335 182.778 546.127 192.996 546.127 205.6C546.127 218.204 556.335 228.422 568.928 228.422Z" fill="#89A9B5"/>
<path d="M589.709 205.6C589.709 216.867 580.473 226.111 569.217 226.111C557.96 226.111 548.724 216.867 548.724 205.6C548.724 194.333 557.96 185.089 569.217 185.089C580.473 185.089 589.709 194.333 589.709 205.6Z" fill="#172B33"/>
<path d="M625.5 205.6C625.5 218.311 635.602 228.422 648.302 228.422C661.001 228.422 671.103 218.311 671.103 205.6C671.103 192.889 661.001 182.778 648.302 182.778C635.602 182.778 625.5 192.889 625.5 205.6Z" fill="#89A9B5"/>
<path d="M627.52 205.6C627.52 216.867 636.756 226.111 648.013 226.111C659.269 226.111 668.505 216.867 668.505 205.6C668.505 194.333 659.269 185.089 648.013 185.089C636.756 185.089 627.52 194.333 627.52 205.6Z" fill="#222836"/>
<path d="M657.249 207.622H559.981C559.115 207.622 558.249 206.756 558.249 205.889V204.444C558.249 203.578 559.115 202.711 559.981 202.711H657.249C658.115 202.711 658.98 203.578 658.98 204.444V205.889C658.98 206.756 658.115 207.622 657.249 207.622Z" fill="#2D515E"/>
<path d="M568.929 212.533C572.754 212.533 575.856 209.429 575.856 205.6C575.856 201.771 572.754 198.667 568.929 198.667C565.103 198.667 562.001 201.771 562.001 205.6C562.001 209.429 565.103 212.533 568.929 212.533Z" fill="#4B7B8B"/>
<path d="M568.928 209.644C571.16 209.644 572.969 207.834 572.969 205.6C572.969 203.366 571.16 201.556 568.928 201.556C566.697 201.556 564.888 203.366 564.888 205.6C564.888 207.834 566.697 209.644 568.928 209.644Z" fill="#223F4A"/>
<path d="M641.375 205.6C641.375 209.356 644.549 212.533 648.302 212.533C652.054 212.533 655.229 209.356 655.229 205.6C655.229 201.844 652.054 198.667 648.302 198.667C644.549 198.667 641.375 201.844 641.375 205.6Z" fill="#4B7B8B"/>
<path d="M648.302 209.644C650.533 209.644 652.342 207.834 652.342 205.6C652.342 203.366 650.533 201.556 648.302 201.556C646.07 201.556 644.261 203.366 644.261 205.6C644.261 207.834 646.07 209.644 648.302 209.644Z" fill="#223F4A"/>
<path d="M625.211 196.067V195.778H592.019V196.067V206.467V211.956H625.211V206.467V196.067Z" fill="#111929"/>
<path d="M620.882 199.533H614.82C614.243 199.533 613.955 199.244 613.955 198.667C613.955 198.089 614.243 197.8 614.82 197.8H620.882C621.459 197.8 621.747 198.089 621.747 198.667C621.747 199.244 621.17 199.533 620.882 199.533Z" fill="url(#paint0_linear)"/>
<path d="M620.882 201.556L615.109 202.711C614.532 202.711 613.955 202.422 613.955 201.845C613.955 201.556 614.243 200.978 614.532 200.978L620.304 199.822C620.882 199.822 621.459 200.111 621.459 200.689C621.747 201.267 621.459 201.556 620.882 201.556Z" fill="url(#paint1_linear)"/>
<path d="M620.882 204.445L615.109 205.6C614.532 205.6 613.955 205.311 613.955 204.733C613.955 204.445 614.243 203.867 614.532 203.867L620.304 202.711C620.882 202.711 621.459 203 621.459 203.578C621.747 203.867 621.459 204.445 620.882 204.445Z" fill="url(#paint2_linear)"/>
<path d="M620.882 207.044L615.109 208.2C614.532 208.2 613.955 207.911 613.955 207.333C613.955 207.044 614.243 206.467 614.532 206.467L620.304 205.311C620.882 205.311 621.459 205.6 621.459 206.178C621.747 206.756 621.459 207.044 620.882 207.044Z" fill="url(#paint3_linear)"/>
<path d="M620.882 210.511H614.82C614.243 210.511 613.955 210.222 613.955 209.644C613.955 209.067 614.243 208.778 614.82 208.778H620.882C621.459 208.778 621.747 209.067 621.747 209.644C621.747 210.222 621.17 210.511 620.882 210.511Z" fill="url(#paint4_linear)"/>
<path d="M596.06 199.533H602.121C602.698 199.533 602.987 199.244 602.987 198.667C602.987 198.089 602.698 197.8 602.121 197.8H596.06C595.482 197.8 595.194 198.089 595.194 198.667C595.194 199.244 595.482 199.533 596.06 199.533Z" fill="url(#paint5_linear)"/>
<path d="M596.06 201.556L601.832 202.711C602.41 202.711 602.987 202.422 602.987 201.845C602.987 201.556 602.698 200.978 602.41 200.978L596.637 199.822C596.06 199.822 595.483 200.111 595.483 200.689C595.194 201.267 595.483 201.556 596.06 201.556Z" fill="url(#paint6_linear)"/>
<path d="M596.06 204.445L601.832 205.6C602.41 205.6 602.987 205.311 602.987 204.733C602.987 204.445 602.698 203.867 602.41 203.867L596.637 202.711C596.06 202.711 595.483 203 595.483 203.578C595.194 203.867 595.483 204.445 596.06 204.445Z" fill="url(#paint7_linear)"/>
<path d="M596.06 207.044L601.832 208.2C602.41 208.2 602.987 207.911 602.987 207.333C602.987 207.044 602.698 206.467 602.41 206.467L596.637 205.311C596.06 205.311 595.483 205.6 595.483 206.178C595.194 206.756 595.483 207.044 596.06 207.044Z" fill="url(#paint8_linear)"/>
<path d="M596.06 210.511H602.121C602.698 210.511 602.987 210.222 602.987 209.644C602.987 209.067 602.698 208.778 602.121 208.778H596.06C595.482 208.778 595.194 209.067 595.194 209.644C595.194 210.222 595.482 210.511 596.06 210.511Z" fill="url(#paint9_linear)"/>
<path d="M607.316 199.533H601.255C600.678 199.533 600.389 199.244 600.389 198.667C600.389 198.089 600.678 197.8 601.255 197.8H607.316C607.893 197.8 608.182 198.089 608.182 198.667C608.182 199.244 607.893 199.533 607.316 199.533Z" fill="url(#paint10_linear)"/>
<path d="M607.605 201.556L601.833 202.711C601.255 202.711 600.678 202.422 600.678 201.845C600.678 201.556 600.967 200.978 601.255 200.978L607.028 199.822C607.605 199.822 608.182 200.111 608.182 200.689C608.182 201.267 607.894 201.556 607.605 201.556Z" fill="url(#paint11_linear)"/>
<path d="M607.605 204.445L601.833 205.6C601.255 205.6 600.678 205.311 600.678 204.733C600.678 204.445 600.967 203.867 601.255 203.867L607.028 202.711C607.605 202.711 608.182 203 608.182 203.578C608.182 203.867 607.894 204.445 607.605 204.445Z" fill="url(#paint12_linear)"/>
<path d="M607.605 207.044L601.833 208.2C601.255 208.2 600.678 207.911 600.678 207.333C600.678 207.044 600.967 206.467 601.255 206.467L607.028 205.311C607.605 205.311 608.182 205.6 608.182 206.178C608.182 206.756 607.894 207.044 607.605 207.044Z" fill="url(#paint13_linear)"/>
<path d="M607.316 210.511H601.255C600.678 210.511 600.389 210.222 600.389 209.644C600.389 209.067 600.678 208.778 601.255 208.778H607.316C607.893 208.778 608.182 209.067 608.182 209.644C608.182 210.222 607.893 210.511 607.316 210.511Z" fill="url(#paint14_linear)"/>
<path d="M615.686 199.533H609.625C609.048 199.533 608.759 199.244 608.759 198.667C608.759 198.089 609.048 197.8 609.625 197.8H615.686C616.264 197.8 616.552 198.089 616.552 198.667C616.841 199.244 616.264 199.533 615.686 199.533Z" fill="url(#paint15_linear)"/>
<path d="M615.976 201.556L610.203 202.711C609.626 202.711 609.049 202.422 609.049 201.845C609.049 201.556 609.337 200.978 609.626 200.978L615.398 199.822C615.976 199.822 616.553 200.111 616.553 200.689C616.553 201.267 616.264 201.556 615.976 201.556Z" fill="url(#paint16_linear)"/>
<path d="M615.976 204.445L610.203 205.6C609.626 205.6 609.049 205.311 609.049 204.733C609.049 204.445 609.337 203.867 609.626 203.867L615.398 202.711C615.976 202.711 616.553 203 616.553 203.578C616.553 203.867 616.264 204.445 615.976 204.445Z" fill="url(#paint17_linear)"/>
<path d="M615.976 207.044L610.203 208.2C609.626 208.2 609.049 207.911 609.049 207.333C609.049 207.044 609.337 206.467 609.626 206.467L615.398 205.311C615.976 205.311 616.553 205.6 616.553 206.178C616.553 206.756 616.264 207.044 615.976 207.044Z" fill="url(#paint18_linear)"/>
<path d="M615.686 210.511H609.625C609.048 210.511 608.759 210.222 608.759 209.644C608.759 209.067 609.048 208.778 609.625 208.778H615.686C616.264 208.778 616.552 209.067 616.552 209.644C616.841 210.222 616.264 210.511 615.686 210.511Z" fill="url(#paint19_linear)"/>
<path d="M658.981 197.8H655.229V205.022H658.981V197.8Z" fill="#2D515E"/>
<path d="M641.085 197.8H637.333V205.022H641.085V197.8Z" fill="#2D515E"/>
<path d="M562.29 198.378H558.249V205.6H562.29V198.378Z" fill="#2D515E"/>
<path d="M579.897 198.378H575.856V205.6H579.897V198.378Z" fill="#2D515E"/>
<path d="M656.383 192.022H560.847C559.404 192.022 558.249 193.178 558.249 194.622V200.978C558.249 201.845 559.115 202.133 559.692 201.556L562.578 198.667C563.444 197.8 564.888 197.222 566.042 197.222H572.103C573.546 197.222 574.701 197.8 575.567 198.667L590.287 213.4H627.52L641.951 198.956C642.817 198.089 644.26 197.511 645.415 197.511H650.899C652.342 197.511 653.497 198.089 654.363 198.956L656.96 201.556C657.537 202.133 658.403 201.845 658.403 200.978V194.622C658.981 193.178 657.826 192.022 656.383 192.022ZM589.998 202.711C589.998 204.444 587.689 205.6 586.535 204.156L581.051 198.378C579.896 196.933 580.762 194.911 582.494 194.911H587.978C589.132 194.911 589.998 195.778 589.998 196.933V202.711ZM623.191 209.356C623.191 210.222 622.325 211.089 621.459 211.089H596.059C594.905 211.089 594.328 210.222 594.328 209.356V199.244C594.328 198.089 595.194 197.511 596.059 197.511H621.459C622.613 197.511 623.191 198.378 623.191 199.244V209.356ZM636.179 198.378L630.695 204.156C629.54 205.6 627.231 204.733 627.231 202.711V196.933C627.231 195.778 628.097 194.911 629.252 194.911H634.736C636.467 194.911 637.622 196.933 636.179 198.378Z" fill="#223F4A"/>
<path d="M656.383 192.022H560.847C559.404 192.022 558.249 193.178 558.249 194.622V195.489C558.249 194.044 559.404 192.889 560.847 192.889H656.383C657.826 192.889 658.98 194.044 658.98 195.489V194.622C658.98 193.178 657.826 192.022 656.383 192.022Z" fill="#4B7B8B"/>
<path d="M596.06 211.956H621.459C622.613 211.956 623.191 211.089 623.191 210.222V209.356C623.191 210.222 622.325 211.089 621.459 211.089H596.06C594.905 211.089 594.328 210.222 594.328 209.356V210.222C594.039 211.089 594.905 211.956 596.06 211.956Z" fill="#4B7B8B"/>
<path d="M581.05 198.956L586.534 204.733C587.689 206.178 589.998 205.311 589.998 203.289V202.422C589.998 204.156 587.689 205.311 586.534 203.867L581.05 198.089C580.762 197.8 580.762 197.511 580.473 197.222C580.473 197.8 580.473 198.667 581.05 198.956Z" fill="#4B7B8B"/>
<path d="M630.984 205.022L636.468 199.245C637.045 198.667 637.045 198.089 637.045 197.511C637.045 197.8 636.756 198.089 636.468 198.378L630.984 204.156C629.829 205.6 627.52 204.733 627.52 202.711V203.578C627.52 205.6 629.54 206.467 630.984 205.022Z" fill="#4B7B8B"/>
<path d="M1014.57 169.778H542.952V178.733H1014.57V169.778Z" fill="#223F4A"/>
<path d="M987.441 30.8222C987.152 30.8222 987.152 30.8222 986.864 30.8222H563.445C542.086 30.8222 524.48 62.0222 524.48 100.444C524.48 138.867 541.798 170.067 563.445 170.067H986.864C987.152 170.067 987.152 170.067 987.441 170.067C1008.8 170.067 1026.41 138.867 1026.41 100.444C1026.41 62.0222 1008.8 30.8222 987.441 30.8222Z" fill="url(#paint20_linear)"/>
<path d="M1026.12 99C1025.54 73.2889 1008.51 52.4889 987.152 52.4889C986.864 52.4889 986.864 52.4889 986.575 52.4889H563.445C542.375 52.4889 525.057 73.2889 524.48 99C524.768 61.1555 542.086 30.8222 563.445 30.8222H986.864C987.152 30.8222 987.152 30.8222 987.441 30.8222C1008.51 30.8222 1025.83 61.1555 1026.12 99Z" fill="#F1C762"/>
<path d="M1026.12 101.311C1025.83 139.156 1008.51 169.489 987.152 169.489C986.864 169.489 986.864 169.489 986.575 169.489H563.445C542.086 169.489 525.057 139.156 524.48 101.311C525.057 127.022 542.086 147.822 563.445 147.822H986.864C987.152 147.822 987.152 147.822 987.441 147.822C1008.51 147.822 1025.54 127.311 1026.12 101.311Z" fill="#C9B57C"/>
<path opacity="0.35" d="M537.179 100.156C537.179 61.7333 545.261 30.5333 566.62 30.5333H563.733C542.375 30.5333 524.768 61.7333 524.768 100.156C524.768 138.578 542.086 169.778 563.733 169.778H566.62C545.261 169.778 537.179 138.578 537.179 100.156Z" fill="#E5E6E5"/>
<path d="M992.059 80.8H557.095C549.013 80.8 542.663 74.4445 542.663 66.3556V66.0667C542.663 57.9778 549.013 51.6222 557.095 51.6222H992.059C1000.14 51.6222 1006.49 57.9778 1006.49 66.0667V66.3556C1006.49 74.1556 999.852 80.8 992.059 80.8Z" fill="#FDCD49"/>
<path d="M616.264 30.8222H606.739V169.778H616.264V30.8222Z" fill="#E5E6E5"/>
<path d="M613.666 29.0889H604.141V169.778H613.666V29.0889Z" fill="url(#paint21_linear)"/>
<path d="M605.584 29.0889H603.853V169.778H605.584V29.0889Z" fill="#FFDE83"/>
<path d="M775.876 0.777771H772.99C771.835 0.777771 770.681 1.93334 770.681 3.0889H778.185C778.185 1.93334 777.03 0.777771 775.876 0.777771Z" fill="url(#paint22_linear)"/>
<path d="M797.523 8.28891H751.631V28.2222H797.523V8.28891Z" fill="url(#paint23_linear)"/>
<path d="M796.368 28.2222H753.074V30.5334H796.368V28.2222Z" fill="url(#paint24_linear)"/>
<path d="M766.639 8.28891H757.403V28.2222H766.639V8.28891Z" fill="#FDCD49"/>
<path d="M774.721 2.80002C762.021 2.80002 751.919 5.11114 751.919 8.28893H797.811C797.523 5.11114 787.421 2.80002 774.721 2.80002Z" fill="url(#paint25_linear)"/>
<path d="M757.403 8.28893H766.928C766.928 5.40003 770.392 2.80002 774.721 2.80002C765.196 2.80002 757.403 5.11114 757.403 8.28893Z" fill="#FDCD49"/>
<path d="M798.966 8.28891H750.476V9.73334H798.966V8.28891Z" fill="url(#paint26_linear)"/>
<path d="M797.523 9.73334H751.631V11.7556H797.523V9.73334Z" fill="#F5E8C4"/>
<path d="M796.368 147.822C794.636 116.044 794.348 84.2666 795.791 52.4889C796.079 45.2666 796.368 38.0444 796.945 30.8222H793.193C793.193 32.5555 792.905 34.2889 792.905 36.0222H766.351C766.351 34.2889 766.639 32.5555 766.639 30.8222H762.887C762.31 38.0444 762.021 45.2666 761.733 52.4889C760.578 84.2666 760.578 116.044 762.31 147.822C762.599 155.044 763.176 162.267 763.753 169.489H767.505C767.217 166.6 767.217 164 766.928 161.111H793.482C793.77 164 793.77 166.6 794.059 169.489H797.811C797.234 162.556 796.657 155.044 796.368 147.822ZM766.062 37.1778H792.616C792.327 40.6444 792.327 44.1111 792.039 47.5777H765.485C765.773 44.1111 765.773 40.6444 766.062 37.1778ZM791.461 118.644C791.461 123.267 791.75 127.6 792.039 132.222H765.485C765.196 127.6 765.196 123.267 764.908 118.644H791.461ZM764.908 117.489C764.908 112.867 764.619 108.533 764.619 103.911H791.173C791.173 108.533 791.173 112.867 791.461 117.489H764.908ZM791.75 133.378C792.039 137.711 792.039 142.044 792.327 146.378H765.773C765.485 142.044 765.485 137.711 765.196 133.378H791.75ZM765.485 52.4889C765.485 51.3333 765.485 50.1777 765.773 48.7333H792.327C792.327 49.8889 792.327 51.0444 792.039 52.4889C792.039 54.8 791.75 57.1111 791.75 59.4222H765.196C765.196 57.1111 765.196 54.8 765.485 52.4889ZM765.196 60.5777H791.75C791.75 64.9111 791.461 69.2444 791.461 73.5777H764.908C764.908 69.2444 764.908 64.9111 765.196 60.5777ZM764.619 74.4444H791.173C791.173 79.0666 791.173 83.4 790.884 88.0222H764.33C764.619 83.6889 764.619 79.0666 764.619 74.4444ZM764.619 89.1777H791.173C791.173 93.8 791.173 98.1333 791.173 102.756H764.619C764.619 98.1333 764.619 93.8 764.619 89.1777ZM766.928 160.244C766.639 156.2 766.351 152.156 766.062 147.822C766.062 147.533 766.062 147.533 766.062 147.244H792.616C792.616 147.533 792.616 147.533 792.616 147.822C792.905 151.867 793.193 155.911 793.482 160.244H766.928Z" fill="#E5E6E5"/>
<path d="M787.998 25.9111H761.444V27.0667H787.998V25.9111Z" fill="#DE910A"/>
<path d="M762.599 25.9111H761.444V27.0667H762.599V25.9111Z" fill="#E5E6E5"/>
<path d="M787.998 25.9111H786.844V27.0667H787.998V25.9111Z" fill="#E5E6E5"/>
<path d="M787.998 34.5778H761.444V35.7334H787.998V34.5778Z" fill="#DE910A"/>
<path d="M762.599 34.5778H761.444V35.7334H762.599V34.5778Z" fill="#E5E6E5"/>
<path d="M787.998 34.5778H786.844V35.7334H787.998V34.5778Z" fill="#E5E6E5"/>
<path d="M787.998 46.1333H761.444V47.2889H787.998V46.1333Z" fill="#DE910A"/>
<path d="M762.599 46.1333H761.444V47.2889H762.599V46.1333Z" fill="#E5E6E5"/>
<path d="M787.998 46.1333H786.844V47.2889H787.998V46.1333Z" fill="#E5E6E5"/>
<path d="M787.998 57.9778H761.444V59.1333H787.998V57.9778Z" fill="#DE910A"/>
<path d="M762.599 57.9778H761.444V59.1333H762.599V57.9778Z" fill="#E5E6E5"/>
<path d="M787.998 57.9778H786.844V59.1333H787.998V57.9778Z" fill="#E5E6E5"/>
<path d="M787.998 72.1334H761.444V73.2889H787.998V72.1334Z" fill="#DE910A"/>
<path d="M762.599 72.1334H761.444V73.2889H762.599V72.1334Z" fill="#E5E6E5"/>
<path d="M787.998 72.1334H786.844V73.2889H787.998V72.1334Z" fill="#E5E6E5"/>
<path d="M787.998 86.5778H761.444V87.7334H787.998V86.5778Z" fill="#DE910A"/>
<path d="M762.599 86.5778H761.444V87.7334H762.599V86.5778Z" fill="#E5E6E5"/>
<path d="M787.998 86.5778H786.844V87.7334H787.998V86.5778Z" fill="#E5E6E5"/>
<path d="M787.998 101.311H761.444V102.467H787.998V101.311Z" fill="#DE910A"/>
<path d="M762.599 101.311H761.444V102.467H762.599V101.311Z" fill="#E5E6E5"/>
<path d="M787.998 101.311H786.844V102.467H787.998V101.311Z" fill="#E5E6E5"/>
<path d="M787.998 116.044H761.444V117.2H787.998V116.044Z" fill="#DE910A"/>
<path d="M762.599 116.044H761.444V117.2H762.599V116.044Z" fill="#E5E6E5"/>
<path d="M787.998 116.044H786.844V117.2H787.998V116.044Z" fill="#E5E6E5"/>
<path d="M787.998 130.778H761.444V131.933H787.998V130.778Z" fill="#DE910A"/>
<path d="M762.599 130.778H761.444V131.933H762.599V130.778Z" fill="#E5E6E5"/>
<path d="M787.998 130.778H786.844V131.933H787.998V130.778Z" fill="#E5E6E5"/>
<path d="M787.998 144.644H761.444V145.8H787.998V144.644Z" fill="#DE910A"/>
<path d="M762.599 144.644H761.444V145.8H762.599V144.644Z" fill="#E5E6E5"/>
<path d="M787.998 144.644H786.844V145.8H787.998V144.644Z" fill="#E5E6E5"/>
<path d="M787.998 158.8H761.444V159.956H787.998V158.8Z" fill="#DE910A"/>
<path d="M762.599 158.8H761.444V159.956H762.599V158.8Z" fill="#E5E6E5"/>
<path d="M787.998 158.8H786.844V159.956H787.998V158.8Z" fill="#E5E6E5"/>
<path d="M787.998 168.622H761.444V169.778H787.998V168.622Z" fill="#DE910A"/>
<path d="M762.599 168.622H761.444V169.778H762.599V168.622Z" fill="#E5E6E5"/>
<path d="M787.998 168.622H786.844V169.778H787.998V168.622Z" fill="#E5E6E5"/>
<path d="M791.75 12.3333H787.998V170.356H791.75V12.3333Z" fill="#E5A71D"/>
<path d="M789.441 12.3333H787.998V170.356H789.441V12.3333Z" fill="#F9B524"/>
<path d="M761.444 12.3333H757.692V170.356H761.444V12.3333Z" fill="#E5A71D"/>
<path d="M758.846 12.3333H757.692V170.356H758.846V12.3333Z" fill="#F9B524"/>
<path d="M50.8392 171.8H10.4312V182.778H50.8392V171.8Z" fill="#172B33"/>
<path d="M10.1424 197.222H7.2561V157.356H10.1424L13.6059 177.578L10.1424 197.222Z" fill="#172B33"/>
<path d="M518.419 171.8H478.01V182.778H518.419V171.8Z" fill="#172B33"/>
<path d="M518.418 197.222H521.593V157.356H518.418L514.955 177.578L518.418 197.222Z" fill="#172B33"/>
<path d="M95.2882 178.733H42.1804L68.1571 204.733H95.2882H122.419L148.396 178.733H95.2882Z" fill="#172B33"/>
<path d="M54.5912 228.422C67.1843 228.422 77.3929 218.204 77.3929 205.6C77.3929 192.996 67.1843 182.778 54.5912 182.778C41.9982 182.778 31.7896 192.996 31.7896 205.6C31.7896 218.204 41.9982 228.422 54.5912 228.422Z" fill="#89A9B5"/>
<path d="M75.3723 205.6C75.3723 216.867 66.1362 226.111 54.8796 226.111C43.6231 226.111 34.387 216.867 34.387 205.6C34.387 194.333 43.6231 185.089 54.8796 185.089C66.1362 185.089 75.3723 194.333 75.3723 205.6Z" fill="#172B33"/>
<path d="M133.964 228.422C146.557 228.422 156.766 218.204 156.766 205.6C156.766 192.996 146.557 182.778 133.964 182.778C121.371 182.778 111.163 192.996 111.163 205.6C111.163 218.204 121.371 228.422 133.964 228.422Z" fill="#89A9B5"/>
<path d="M113.183 205.6C113.183 216.867 122.419 226.111 133.676 226.111C144.932 226.111 154.168 216.867 154.168 205.6C154.168 194.333 144.932 185.089 133.676 185.089C122.419 185.089 113.183 194.333 113.183 205.6Z" fill="#222836"/>
<path d="M142.912 207.622H45.6437C44.7778 207.622 43.9119 206.756 43.9119 205.889V204.444C43.9119 203.578 44.7778 202.711 45.6437 202.711H142.912C143.778 202.711 144.643 203.578 144.643 204.444V205.889C144.643 206.756 143.778 207.622 142.912 207.622Z" fill="#2D515E"/>
<path d="M54.5912 212.533C58.4169 212.533 61.5183 209.429 61.5183 205.6C61.5183 201.771 58.4169 198.667 54.5912 198.667C50.7654 198.667 47.6641 201.771 47.6641 205.6C47.6641 209.429 50.7654 212.533 54.5912 212.533Z" fill="#4B7B8B"/>
<path d="M54.5911 209.644C56.8228 209.644 58.632 207.834 58.632 205.6C58.632 203.366 56.8228 201.556 54.5911 201.556C52.3594 201.556 50.5503 203.366 50.5503 205.6C50.5503 207.834 52.3594 209.644 54.5911 209.644Z" fill="#223F4A"/>
<path d="M127.037 205.6C127.037 209.356 130.212 212.533 133.964 212.533C137.716 212.533 140.891 209.356 140.891 205.6C140.891 201.844 137.716 198.667 133.964 198.667C130.212 198.667 127.037 201.844 127.037 205.6Z" fill="#4B7B8B"/>
<path d="M133.964 209.644C136.196 209.644 138.005 207.834 138.005 205.6C138.005 203.366 136.196 201.556 133.964 201.556C131.732 201.556 129.923 203.366 129.923 205.6C129.923 207.834 131.732 209.644 133.964 209.644Z" fill="#223F4A"/>
<path d="M110.874 196.067V195.778H77.6814V196.067V206.467V211.956H110.874V206.467V196.067Z" fill="#111929"/>
<path d="M106.545 199.533H100.483C99.9061 199.533 99.6174 199.244 99.6174 198.667C99.6174 198.089 99.9061 197.8 100.483 197.8H106.545C107.122 197.8 107.41 198.089 107.41 198.667C107.41 199.244 106.833 199.533 106.545 199.533Z" fill="url(#paint27_linear)"/>
<path d="M106.545 201.556L100.772 202.711C100.195 202.711 99.6174 202.422 99.6174 201.845C99.6174 201.556 99.9061 200.978 100.195 200.978L105.967 199.822C106.545 199.822 107.122 200.111 107.122 200.689C107.41 201.267 107.122 201.556 106.545 201.556Z" fill="url(#paint28_linear)"/>
<path d="M106.545 204.445L100.772 205.6C100.195 205.6 99.6174 205.311 99.6174 204.733C99.6174 204.445 99.9061 203.867 100.195 203.867L105.967 202.711C106.545 202.711 107.122 203 107.122 203.578C107.41 203.867 107.122 204.445 106.545 204.445Z" fill="url(#paint29_linear)"/>
<path d="M106.545 207.044L100.772 208.2C100.195 208.2 99.6174 207.911 99.6174 207.333C99.6174 207.044 99.9061 206.467 100.195 206.467L105.967 205.311C106.545 205.311 107.122 205.6 107.122 206.178C107.41 206.756 107.122 207.044 106.545 207.044Z" fill="url(#paint30_linear)"/>
<path d="M106.545 210.511H100.483C99.9061 210.511 99.6174 210.222 99.6174 209.644C99.6174 209.067 99.9061 208.778 100.483 208.778H106.545C107.122 208.778 107.41 209.067 107.41 209.644C107.41 210.222 106.833 210.511 106.545 210.511Z" fill="url(#paint31_linear)"/>
<path d="M81.7223 199.533H87.7835C88.3607 199.533 88.6494 199.244 88.6494 198.667C88.6494 198.089 88.3607 197.8 87.7835 197.8H81.7223C81.1451 197.8 80.8564 198.089 80.8564 198.667C80.8564 199.244 81.4337 199.533 81.7223 199.533Z" fill="url(#paint32_linear)"/>
<path d="M81.7225 201.556L87.4951 202.711C88.0724 202.711 88.6496 202.422 88.6496 201.845C88.6496 201.556 88.361 200.978 88.0723 200.978L82.2997 199.822C81.7225 199.822 81.1452 200.111 81.1452 200.689C80.8566 201.267 81.1452 201.556 81.7225 201.556Z" fill="url(#paint33_linear)"/>
<path d="M81.7225 204.445L87.4951 205.6C88.0724 205.6 88.6496 205.311 88.6496 204.733C88.6496 204.445 88.361 203.867 88.0723 203.867L82.2997 202.711C81.7225 202.711 81.1452 203 81.1452 203.578C80.8566 203.867 81.1452 204.445 81.7225 204.445Z" fill="url(#paint34_linear)"/>
<path d="M81.7225 207.044L87.4951 208.2C88.0724 208.2 88.6496 207.911 88.6496 207.333C88.6496 207.044 88.361 206.467 88.0723 206.467L82.2997 205.311C81.7225 205.311 81.1452 205.6 81.1452 206.178C80.8566 206.756 81.1452 207.044 81.7225 207.044Z" fill="url(#paint35_linear)"/>
<path d="M81.7223 210.511H87.7835C88.3607 210.511 88.6494 210.222 88.6494 209.644C88.6494 209.067 88.3607 208.778 87.7835 208.778H81.7223C81.1451 208.778 80.8564 209.067 80.8564 209.644C80.8564 210.222 81.4337 210.511 81.7223 210.511Z" fill="url(#paint36_linear)"/>
<path d="M92.9791 199.533H86.9179C86.3406 199.533 86.052 199.244 86.052 198.667C86.052 198.089 86.3406 197.8 86.9179 197.8H92.9791C93.5564 197.8 93.845 198.089 93.845 198.667C93.845 199.244 93.5564 199.533 92.9791 199.533Z" fill="url(#paint37_linear)"/>
<path d="M93.2682 201.556L87.4956 202.711C86.9183 202.711 86.3411 202.422 86.3411 201.845C86.3411 201.556 86.6297 200.978 86.9183 200.978L92.6909 199.822C93.2682 199.822 93.8454 200.111 93.8454 200.689C93.8454 201.267 93.5568 201.556 93.2682 201.556Z" fill="url(#paint38_linear)"/>
<path d="M93.2682 204.445L87.4956 205.6C86.9183 205.6 86.3411 205.311 86.3411 204.733C86.3411 204.445 86.6297 203.867 86.9183 203.867L92.6909 202.711C93.2682 202.711 93.8454 203 93.8454 203.578C93.8454 203.867 93.5568 204.445 93.2682 204.445Z" fill="url(#paint39_linear)"/>
<path d="M93.2682 207.044L87.4956 208.2C86.9183 208.2 86.3411 207.911 86.3411 207.333C86.3411 207.044 86.6297 206.467 86.9183 206.467L92.6909 205.311C93.2682 205.311 93.8454 205.6 93.8454 206.178C93.8454 206.756 93.5568 207.044 93.2682 207.044Z" fill="url(#paint40_linear)"/>
<path d="M92.9791 210.511H86.9179C86.3406 210.511 86.052 210.222 86.052 209.644C86.052 209.067 86.3406 208.778 86.9179 208.778H92.9791C93.5564 208.778 93.845 209.067 93.845 209.644C93.845 210.222 93.5564 210.511 92.9791 210.511Z" fill="url(#paint41_linear)"/>
<path d="M101.349 199.533H95.288C94.7108 199.533 94.4221 199.244 94.4221 198.667C94.4221 198.089 94.7108 197.8 95.288 197.8H101.349C101.927 197.8 102.215 198.089 102.215 198.667C102.504 199.244 101.927 199.533 101.349 199.533Z" fill="url(#paint42_linear)"/>
<path d="M101.639 201.556L95.8659 202.711C95.2887 202.711 94.7114 202.422 94.7114 201.845C94.7114 201.556 95 200.978 95.2887 200.978L101.061 199.822C101.639 199.822 102.216 200.111 102.216 200.689C102.216 201.267 101.927 201.556 101.639 201.556Z" fill="url(#paint43_linear)"/>
<path d="M101.639 204.445L95.8659 205.6C95.2887 205.6 94.7114 205.311 94.7114 204.733C94.7114 204.445 95 203.867 95.2887 203.867L101.061 202.711C101.639 202.711 102.216 203 102.216 203.578C102.216 203.867 101.927 204.445 101.639 204.445Z" fill="url(#paint44_linear)"/>
<path d="M101.639 207.044L95.8659 208.2C95.2887 208.2 94.7114 207.911 94.7114 207.333C94.7114 207.044 95 206.467 95.2887 206.467L101.061 205.311C101.639 205.311 102.216 205.6 102.216 206.178C102.216 206.756 101.927 207.044 101.639 207.044Z" fill="url(#paint45_linear)"/>
<path d="M101.349 210.511H95.288C94.7108 210.511 94.4221 210.222 94.4221 209.644C94.4221 209.067 94.7108 208.778 95.288 208.778H101.349C101.927 208.778 102.215 209.067 102.215 209.644C102.504 210.222 101.927 210.511 101.349 210.511Z" fill="url(#paint46_linear)"/>
<path d="M144.644 197.8H140.892V205.022H144.644V197.8Z" fill="#2D515E"/>
<path d="M126.749 197.8H122.997V205.022H126.749V197.8Z" fill="#2D515E"/>
<path d="M47.9527 198.378H43.9119V205.6H47.9527V198.378Z" fill="#2D515E"/>
<path d="M65.5594 198.378H61.5186V205.6H65.5594V198.378Z" fill="#2D515E"/>
<path d="M142.046 192.022H46.5095C45.0664 192.022 43.9119 193.178 43.9119 194.622V200.978C43.9119 201.845 44.7778 202.133 45.355 201.556L48.2413 198.667C49.1072 197.8 50.5503 197.222 51.7049 197.222H57.7661C59.2092 197.222 60.3637 197.8 61.2296 198.667L75.9497 213.4H113.183L127.614 198.956C128.48 198.089 129.923 197.511 131.078 197.511H136.562C138.005 197.511 139.159 198.089 140.025 198.956L142.623 201.556C143.2 202.133 144.066 201.845 144.066 200.978V194.622C144.643 193.178 143.489 192.022 142.046 192.022ZM75.6611 202.711C75.6611 204.444 73.352 205.6 72.1975 204.156L66.7136 198.378C65.559 196.933 66.4249 194.911 68.1567 194.911H73.6407C74.7952 194.911 75.6611 195.778 75.6611 196.933V202.711ZM108.853 209.356C108.853 210.222 107.988 211.089 107.122 211.089H81.7223C80.5678 211.089 79.9905 210.222 79.9905 209.356V199.244C79.9905 198.089 80.8564 197.511 81.7223 197.511H107.122C107.988 197.511 108.853 198.378 108.853 199.244V209.356ZM121.842 198.378L116.358 204.156C115.203 205.6 112.894 204.733 112.894 202.711V196.933C112.894 195.778 113.76 194.911 114.915 194.911H120.399C122.13 194.911 123.285 196.933 121.842 198.378Z" fill="#223F4A"/>
<path d="M142.046 192.022H46.5095C45.0664 192.022 43.9119 193.178 43.9119 194.622V195.489C43.9119 194.044 45.0664 192.889 46.5095 192.889H142.046C143.489 192.889 144.643 194.044 144.643 195.489V194.622C144.643 193.178 143.489 192.022 142.046 192.022Z" fill="#4B7B8B"/>
<path d="M81.7225 211.956H107.122C107.988 211.956 108.854 211.089 108.854 210.222V209.356C108.854 210.222 107.988 211.089 107.122 211.089H81.7225C80.568 211.089 79.9908 210.222 79.9908 209.356V210.222C79.7021 211.089 80.568 211.956 81.7225 211.956Z" fill="#4B7B8B"/>
<path d="M66.7135 198.956L72.1974 204.733C73.352 206.178 75.661 205.311 75.661 203.289V202.422C75.661 204.156 73.352 205.311 72.1974 203.867L66.7135 198.089C66.4249 197.8 66.4249 197.511 66.1362 197.222C66.1362 197.8 66.1362 198.667 66.7135 198.956Z" fill="#4B7B8B"/>
<path d="M116.646 205.022L122.13 199.245C122.708 198.667 122.708 198.089 122.708 197.511C122.708 197.8 122.419 198.089 122.13 198.378L116.646 204.156C115.492 205.6 113.183 204.733 113.183 202.711V203.578C113.183 205.6 115.203 206.467 116.646 205.022Z" fill="#4B7B8B"/>
<path d="M425.192 178.733H478.299L452.323 204.733H425.192H398.06L372.084 178.733H425.192Z" fill="#172B33"/>
<path d="M465.888 228.422C478.481 228.422 488.69 218.204 488.69 205.6C488.69 192.996 478.481 182.778 465.888 182.778C453.295 182.778 443.086 192.996 443.086 205.6C443.086 218.204 453.295 228.422 465.888 228.422Z" fill="#89A9B5"/>
<path d="M445.395 205.6C445.395 216.867 454.631 226.111 465.888 226.111C477.144 226.111 486.381 216.867 486.381 205.6C486.381 194.333 477.144 185.089 465.888 185.089C454.631 185.089 445.395 194.333 445.395 205.6Z" fill="#172B33"/>
<path d="M386.804 228.422C399.397 228.422 409.605 218.204 409.605 205.6C409.605 192.996 399.397 182.778 386.804 182.778C374.211 182.778 364.002 192.996 364.002 205.6C364.002 218.204 374.211 228.422 386.804 228.422Z" fill="#89A9B5"/>
<path d="M407.296 205.6C407.296 216.867 398.06 226.111 386.804 226.111C375.547 226.111 366.311 216.867 366.311 205.6C366.311 194.333 375.547 185.089 386.804 185.089C398.06 185.089 407.296 194.333 407.296 205.6Z" fill="#222836"/>
<path d="M377.568 207.622H474.836C475.702 207.622 476.568 206.756 476.568 205.889V204.444C476.568 203.578 475.702 202.711 474.836 202.711H377.568C376.702 202.711 375.836 203.578 375.836 204.444V205.889C375.836 206.756 376.702 207.622 377.568 207.622Z" fill="#2D515E"/>
<path d="M465.888 212.533C469.713 212.533 472.815 209.429 472.815 205.6C472.815 201.771 469.713 198.667 465.888 198.667C462.062 198.667 458.961 201.771 458.961 205.6C458.961 209.429 462.062 212.533 465.888 212.533Z" fill="#4B7B8B"/>
<path d="M465.888 209.644C468.12 209.644 469.929 207.834 469.929 205.6C469.929 203.366 468.12 201.556 465.888 201.556C463.656 201.556 461.847 203.366 461.847 205.6C461.847 207.834 463.656 209.644 465.888 209.644Z" fill="#223F4A"/>
<path d="M386.804 212.533C390.629 212.533 393.731 209.429 393.731 205.6C393.731 201.771 390.629 198.667 386.804 198.667C382.978 198.667 379.876 201.771 379.876 205.6C379.876 209.429 382.978 212.533 386.804 212.533Z" fill="#4B7B8B"/>
<path d="M386.804 209.644C389.035 209.644 390.844 207.834 390.844 205.6C390.844 203.366 389.035 201.556 386.804 201.556C384.572 201.556 382.763 203.366 382.763 205.6C382.763 207.834 384.572 209.644 386.804 209.644Z" fill="#223F4A"/>
<path d="M409.894 196.067V195.778H442.798V196.067V206.467V211.956H409.894V206.467V196.067Z" fill="#111929"/>
<path d="M414.224 199.533H420.285C420.862 199.533 421.151 199.244 421.151 198.667C421.151 198.089 420.862 197.8 420.285 197.8H414.224C413.647 197.8 413.358 198.089 413.358 198.667C413.358 199.244 413.647 199.533 414.224 199.533Z" fill="url(#paint47_linear)"/>
<path d="M413.935 201.556L419.708 202.711C420.285 202.711 420.862 202.422 420.862 201.845C420.862 201.556 420.574 200.978 420.285 200.978L414.512 199.822C413.935 199.822 413.358 200.111 413.358 200.689C413.358 201.267 413.647 201.556 413.935 201.556Z" fill="url(#paint48_linear)"/>
<path d="M413.935 204.445L419.708 205.6C420.285 205.6 420.862 205.311 420.862 204.733C420.862 204.445 420.574 203.867 420.285 203.867L414.512 202.711C413.935 202.711 413.358 203 413.358 203.578C413.358 203.867 413.647 204.445 413.935 204.445Z" fill="url(#paint49_linear)"/>
<path d="M413.935 207.044L419.708 208.2C420.285 208.2 420.862 207.911 420.862 207.333C420.862 207.044 420.574 206.467 420.285 206.467L414.512 205.311C413.935 205.311 413.358 205.6 413.358 206.178C413.358 206.756 413.647 207.044 413.935 207.044Z" fill="url(#paint50_linear)"/>
<path d="M414.224 210.511H420.285C420.862 210.511 421.151 210.222 421.151 209.644C421.151 209.067 420.862 208.778 420.285 208.778H414.224C413.647 208.778 413.358 209.067 413.358 209.644C413.358 210.222 413.647 210.511 414.224 210.511Z" fill="url(#paint51_linear)"/>
<path d="M438.757 199.533H432.985C432.407 199.533 432.119 199.244 432.119 198.667C432.119 198.089 432.407 197.8 432.985 197.8H439.046C439.623 197.8 439.912 198.089 439.912 198.667C439.623 199.244 439.334 199.533 438.757 199.533Z" fill="url(#paint52_linear)"/>
<path d="M439.046 201.556L433.273 202.711C432.696 202.711 432.119 202.422 432.119 201.845C432.119 201.556 432.407 200.978 432.696 200.978L438.469 199.822C439.046 199.822 439.623 200.111 439.623 200.689C439.623 201.267 439.334 201.556 439.046 201.556Z" fill="url(#paint53_linear)"/>
<path d="M439.046 204.445L433.273 205.6C432.696 205.6 432.119 205.311 432.119 204.733C432.119 204.445 432.407 203.867 432.696 203.867L438.469 202.711C439.046 202.711 439.623 203 439.623 203.578C439.623 203.867 439.334 204.445 439.046 204.445Z" fill="url(#paint54_linear)"/>
<path d="M439.046 207.044L433.273 208.2C432.696 208.2 432.119 207.911 432.119 207.333C432.119 207.044 432.407 206.467 432.696 206.467L438.469 205.311C439.046 205.311 439.623 205.6 439.623 206.178C439.623 206.756 439.334 207.044 439.046 207.044Z" fill="url(#paint55_linear)"/>
<path d="M438.757 210.511H432.985C432.407 210.511 432.119 210.222 432.119 209.644C432.119 209.067 432.407 208.778 432.985 208.778H439.046C439.623 208.778 439.912 209.067 439.912 209.644C439.623 210.222 439.334 210.511 438.757 210.511Z" fill="url(#paint56_linear)"/>
<path d="M427.5 199.533H433.562C434.139 199.533 434.427 199.244 434.427 198.667C434.427 198.089 434.139 197.8 433.562 197.8H427.5C426.923 197.8 426.635 198.089 426.635 198.667C426.635 199.244 427.212 199.533 427.5 199.533Z" fill="url(#paint57_linear)"/>
<path d="M427.501 201.556L433.273 202.711C433.85 202.711 434.428 202.422 434.428 201.845C434.428 201.556 434.139 200.978 433.85 200.978L428.078 199.822C427.501 199.822 426.923 200.111 426.923 200.689C426.635 201.267 426.923 201.556 427.501 201.556Z" fill="url(#paint58_linear)"/>
<path d="M427.501 204.445L433.273 205.6C433.85 205.6 434.428 205.311 434.428 204.733C434.428 204.445 434.139 203.867 433.85 203.867L428.078 202.711C427.501 202.711 426.923 203 426.923 203.578C426.635 203.867 426.923 204.445 427.501 204.445Z" fill="url(#paint59_linear)"/>
<path d="M427.501 207.044L433.273 208.2C433.85 208.2 434.428 207.911 434.428 207.333C434.428 207.044 434.139 206.467 433.85 206.467L428.078 205.311C427.501 205.311 426.923 205.6 426.923 206.178C426.635 206.756 426.923 207.044 427.501 207.044Z" fill="url(#paint60_linear)"/>
<path d="M427.5 210.511H433.562C434.139 210.511 434.427 210.222 434.427 209.644C434.427 209.067 434.139 208.778 433.562 208.778H427.5C426.923 208.778 426.635 209.067 426.635 209.644C426.635 210.222 427.212 210.511 427.5 210.511Z" fill="url(#paint61_linear)"/>
<path d="M419.13 199.533H425.192C425.769 199.533 426.057 199.244 426.057 198.667C426.057 198.089 425.769 197.8 425.192 197.8H419.13C418.553 197.8 418.264 198.089 418.264 198.667C418.264 199.244 418.553 199.533 419.13 199.533Z" fill="url(#paint62_linear)"/>
<path d="M419.13 201.556L424.903 202.711C425.48 202.711 426.057 202.422 426.057 201.845C426.057 201.556 425.769 200.978 425.48 200.978L419.708 199.822C419.13 199.822 418.553 200.111 418.553 200.689C418.265 201.267 418.553 201.556 419.13 201.556Z" fill="url(#paint63_linear)"/>
<path d="M419.13 204.445L424.903 205.6C425.48 205.6 426.057 205.311 426.057 204.733C426.057 204.445 425.769 203.867 425.48 203.867L419.708 202.711C419.13 202.711 418.553 203 418.553 203.578C418.265 203.867 418.553 204.445 419.13 204.445Z" fill="url(#paint64_linear)"/>
<path d="M419.13 207.044L424.903 208.2C425.48 208.2 426.057 207.911 426.057 207.333C426.057 207.044 425.769 206.467 425.48 206.467L419.708 205.311C419.13 205.311 418.553 205.6 418.553 206.178C418.265 206.756 418.553 207.044 419.13 207.044Z" fill="url(#paint65_linear)"/>
<path d="M419.13 210.511H425.192C425.769 210.511 426.057 210.222 426.057 209.644C426.057 209.067 425.769 208.778 425.192 208.778H419.13C418.553 208.778 418.264 209.067 418.264 209.644C418.264 210.222 418.553 210.511 419.13 210.511Z" fill="url(#paint66_linear)"/>
<path d="M379.588 197.8H375.836V205.022H379.588V197.8Z" fill="#2D515E"/>
<path d="M397.483 197.8H393.731V205.022H397.483V197.8Z" fill="#2D515E"/>
<path d="M476.856 198.378H472.815V205.6H476.856V198.378Z" fill="#2D515E"/>
<path d="M459.25 198.378H455.209V205.6H459.25V198.378Z" fill="#2D515E"/>
<path d="M375.836 194.622V200.978C375.836 201.845 376.702 202.133 377.279 201.556L379.877 198.956C380.743 198.089 382.186 197.511 383.34 197.511H388.824C390.267 197.511 391.422 198.089 392.288 198.956L406.719 213.4H444.53L459.25 198.667C460.116 197.8 461.559 197.222 462.713 197.222H468.775C470.218 197.222 471.372 197.8 472.238 198.667L475.124 201.556C475.702 202.133 476.568 201.845 476.568 200.978V194.622C476.568 193.178 475.413 192.022 473.97 192.022H378.434C376.99 192.022 375.836 193.178 375.836 194.622ZM444.818 196.933C444.818 195.778 445.684 194.911 446.839 194.911H452.323C454.055 194.911 454.92 196.933 453.766 198.378L448.282 204.156C447.127 205.6 444.818 204.733 444.818 202.711V196.933ZM411.626 199.244C411.626 198.089 412.492 197.511 413.358 197.511H438.757C439.912 197.511 440.489 198.378 440.489 199.244V209.356C440.489 210.222 439.623 211.089 438.757 211.089H413.358C412.492 211.089 411.626 210.222 411.626 209.356V199.244ZM400.081 194.911H405.565C406.719 194.911 407.585 195.778 407.585 196.933V202.711C407.585 204.444 405.276 205.6 404.122 204.156L398.638 198.378C397.483 196.933 398.349 194.911 400.081 194.911Z" fill="#223F4A"/>
<path d="M378.434 192.022H473.97C475.413 192.022 476.568 193.178 476.568 194.622V195.489C476.568 194.044 475.413 192.889 473.97 192.889H378.434C376.99 192.889 375.836 194.044 375.836 195.489V194.622C375.836 193.178 376.99 192.022 378.434 192.022Z" fill="#4B7B8B"/>
<path d="M439.046 211.956H413.646C412.78 211.956 411.915 211.089 411.915 210.222V209.356C411.915 210.222 412.78 211.089 413.646 211.089H439.046C440.2 211.089 440.777 210.222 440.777 209.356V210.222C440.777 211.089 439.912 211.956 439.046 211.956Z" fill="#4B7B8B"/>
<path d="M453.766 198.956L448.282 204.733C447.127 206.178 444.818 205.311 444.818 203.289V202.422C444.818 204.156 447.127 205.311 448.282 203.867L453.766 198.089C454.054 197.8 454.054 197.511 454.343 197.222C454.343 197.8 454.343 198.667 453.766 198.956Z" fill="#4B7B8B"/>
<path d="M404.122 205.022L398.638 199.245C398.06 198.667 398.06 198.089 398.06 197.511C398.06 197.8 398.349 198.089 398.638 198.378L404.122 204.156C405.276 205.6 407.585 204.733 407.585 202.711V203.578C407.585 205.6 405.276 206.467 404.122 205.022Z" fill="#4B7B8B"/>
<path d="M500.235 169.778H28.6145V178.733H500.235V169.778Z" fill="#223F4A"/>
<path d="M473.104 30.8222C472.815 30.8222 472.815 30.8222 472.526 30.8222H49.1073C27.7487 30.8222 10.1423 62.0222 10.1423 100.444C10.1423 138.867 27.4601 170.067 49.1073 170.067H472.526C472.815 170.067 472.815 170.067 473.104 170.067C494.462 170.067 512.068 138.867 512.068 100.444C512.068 62.0222 494.462 30.8222 473.104 30.8222Z" fill="url(#paint67_linear)"/>
<path d="M511.78 99C511.203 73.2889 494.174 52.4889 472.815 52.4889C472.526 52.4889 472.526 52.4889 472.238 52.4889H49.1073C28.0373 52.4889 10.7196 73.2889 10.1423 99C10.431 61.1555 27.7487 30.8222 49.1073 30.8222H472.526C472.815 30.8222 472.815 30.8222 473.104 30.8222C494.174 30.8222 511.491 61.1555 511.78 99Z" fill="#F1C762"/>
<path d="M511.78 101.311C511.491 139.156 494.174 169.489 472.815 169.489C472.526 169.489 472.526 169.489 472.238 169.489H49.1073C27.7487 169.489 10.7196 139.156 10.1423 101.311C10.7196 127.022 27.7487 147.822 49.1073 147.822H472.526C472.815 147.822 472.815 147.822 473.104 147.822C494.174 147.822 511.203 127.311 511.78 101.311Z" fill="#C9B57C"/>
<path opacity="0.35" d="M22.8422 100.156C22.8422 61.7333 30.9238 30.5333 52.2823 30.5333H49.396C28.0375 30.5333 10.4312 61.7333 10.4312 100.156C10.4312 138.578 27.7489 169.778 49.396 169.778H52.2823C30.9238 169.778 22.8422 138.578 22.8422 100.156Z" fill="#E5E6E5"/>
<path d="M473.104 30.8222C472.815 30.8222 472.815 30.8222 472.526 30.8222H469.929C490.999 30.8222 497.637 62.0222 497.637 100.444C497.637 138.867 491.287 170.067 469.929 170.067H472.526C472.815 170.067 472.815 170.067 473.104 170.067C494.462 170.067 512.069 138.867 512.069 100.444C512.069 62.0222 494.462 30.8222 473.104 30.8222Z" fill="#E5E6E5"/>
<path d="M477.722 80.8H42.7576C34.676 80.8 28.3262 74.4445 28.3262 66.3556V66.0667C28.3262 57.9778 34.676 51.6222 42.7576 51.6222H477.722C485.803 51.6222 492.153 57.9778 492.153 66.0667V66.3556C492.153 74.1556 485.803 80.8 477.722 80.8Z" fill="#FDCD49"/>
<path d="M101.926 30.8222H92.4016V169.778H101.926V30.8222Z" fill="#E5E6E5"/>
<path d="M99.3289 29.0889H89.8042V169.778H99.3289V29.0889Z" fill="url(#paint68_linear)"/>
<path d="M91.2471 29.0889H89.5154V169.778H91.2471V29.0889Z" fill="#FFDE83"/>
<path d="M433.273 30.8222H423.748V169.778H433.273V30.8222Z" fill="#E5E6E5"/>
<path d="M430.387 29.0889H420.862V169.778H430.387V29.0889Z" fill="url(#paint69_linear)"/>
<path d="M422.594 29.0889H420.862V169.778H422.594V29.0889Z" fill="#FFDE83"/>
<path d="M261.539 0.777771H258.652C257.498 0.777771 256.343 1.93334 256.343 3.0889H263.848C263.848 1.93334 262.693 0.777771 261.539 0.777771Z" fill="url(#paint70_linear)"/>
<path d="M283.186 8.28891H237.293V28.2222H283.186V8.28891Z" fill="url(#paint71_linear)"/>
<path d="M282.031 28.2222H238.737V30.5334H282.031V28.2222Z" fill="url(#paint72_linear)"/>
<path d="M252.302 8.28891H243.066V28.2222H252.302V8.28891Z" fill="#FDCD49"/>
<path d="M260.384 2.80002C247.684 2.80002 237.293 5.11114 237.293 8.28893H283.186C283.186 5.11114 273.084 2.80002 260.384 2.80002Z" fill="url(#paint73_linear)"/>
<path d="M243.066 8.28893H252.591C252.591 5.40003 256.054 2.80002 260.384 2.80002C250.859 2.80002 243.066 5.11114 243.066 8.28893Z" fill="#FDCD49"/>
<path d="M284.629 8.28891H236.139V9.73334H284.629V8.28891Z" fill="url(#paint74_linear)"/>
<path d="M283.186 9.73334H237.293V11.7556H283.186V9.73334Z" fill="#F5E8C4"/>
<path d="M281.454 52.4889C281.743 45.2666 282.031 38.0444 282.608 30.8222H278.856C278.856 32.5555 278.568 34.2889 278.568 36.0222H252.014C252.014 34.2889 252.302 32.5555 252.302 30.8222H248.262C247.684 38.0444 247.396 45.2666 247.107 52.4889C245.953 84.2666 245.953 116.044 247.684 147.822C247.973 155.044 248.55 162.267 249.128 169.489H252.88C252.591 166.6 252.591 164 252.302 161.111H278.856C279.145 164 279.145 166.6 279.434 169.489H283.186C282.897 162.556 280.011 84.2666 281.454 52.4889ZM251.725 37.1778H278.279C277.99 40.6444 277.99 44.1111 277.702 47.5777H251.148C251.437 44.1111 251.725 40.6444 251.725 37.1778ZM277.125 118.644C277.125 123.267 277.413 127.6 277.702 132.222H251.148C250.859 127.6 250.859 123.267 250.571 118.644H277.125ZM250.571 117.489C250.571 112.867 250.282 108.533 250.282 103.911H276.836C276.836 108.533 276.836 112.867 277.125 117.489H250.571ZM277.702 133.378C277.99 137.711 277.99 142.044 278.279 146.378H251.725C251.437 142.044 251.437 137.711 251.148 133.378H277.702ZM251.148 52.4889C251.148 51.3333 251.148 50.1777 251.437 48.7333H277.99C277.99 49.8889 277.99 51.0444 277.702 52.4889C277.702 54.8 277.413 57.1111 277.413 59.4222H250.859C250.859 57.1111 250.859 54.8 251.148 52.4889ZM250.859 60.5777H277.413C277.413 64.9111 277.125 69.2444 277.125 73.5777H250.571C250.571 69.2444 250.571 64.9111 250.859 60.5777ZM250.282 74.4444H276.836C276.836 79.0666 276.836 83.4 276.547 88.0222H249.993C250.282 83.6889 250.282 79.0666 250.282 74.4444ZM250.282 89.1777H276.836C276.836 93.8 276.836 98.1333 276.836 102.756H250.282C250.282 98.1333 250.282 93.8 250.282 89.1777ZM252.591 160.244C252.302 156.2 252.014 152.156 251.725 147.822C251.725 147.533 251.725 147.533 251.725 147.244H278.279C278.279 147.533 278.279 147.533 278.279 147.822C278.568 151.867 278.856 155.911 279.145 160.244H252.591Z" fill="#E5E6E5"/>
<path d="M273.661 25.9111H247.107V27.0667H273.661V25.9111Z" fill="#DE910A"/>
<path d="M248.261 25.9111H247.107V27.0667H248.261V25.9111Z" fill="#E5E6E5"/>
<path d="M273.661 25.9111H272.506V27.0667H273.661V25.9111Z" fill="#E5E6E5"/>
<path d="M273.661 34.5778H247.107V35.7334H273.661V34.5778Z" fill="#DE910A"/>
<path d="M248.261 34.5778H247.107V35.7334H248.261V34.5778Z" fill="#E5E6E5"/>
<path d="M273.661 34.5778H272.506V35.7334H273.661V34.5778Z" fill="#E5E6E5"/>
<path d="M273.661 46.1333H247.107V47.2889H273.661V46.1333Z" fill="#DE910A"/>
<path d="M248.261 46.1333H247.107V47.2889H248.261V46.1333Z" fill="#E5E6E5"/>
<path d="M273.661 46.1333H272.506V47.2889H273.661V46.1333Z" fill="#E5E6E5"/>
<path d="M273.661 57.9778H247.107V59.1333H273.661V57.9778Z" fill="#DE910A"/>
<path d="M248.261 57.9778H247.107V59.1333H248.261V57.9778Z" fill="#E5E6E5"/>
<path d="M273.661 57.9778H272.506V59.1333H273.661V57.9778Z" fill="#E5E6E5"/>
<path d="M273.661 72.1334H247.107V73.2889H273.661V72.1334Z" fill="#DE910A"/>
<path d="M248.261 72.1334H247.107V73.2889H248.261V72.1334Z" fill="#E5E6E5"/>
<path d="M273.661 72.1334H272.506V73.2889H273.661V72.1334Z" fill="#E5E6E5"/>
<path d="M273.661 86.5778H247.107V87.7334H273.661V86.5778Z" fill="#DE910A"/>
<path d="M248.261 86.5778H247.107V87.7334H248.261V86.5778Z" fill="#E5E6E5"/>
<path d="M273.661 86.5778H272.506V87.7334H273.661V86.5778Z" fill="#E5E6E5"/>
<path d="M273.661 101.311H247.107V102.467H273.661V101.311Z" fill="#DE910A"/>
<path d="M248.261 101.311H247.107V102.467H248.261V101.311Z" fill="#E5E6E5"/>
<path d="M273.661 101.311H272.506V102.467H273.661V101.311Z" fill="#E5E6E5"/>
<path d="M273.661 116.044H247.107V117.2H273.661V116.044Z" fill="#DE910A"/>
<path d="M248.261 116.044H247.107V117.2H248.261V116.044Z" fill="#E5E6E5"/>
<path d="M273.661 116.044H272.506V117.2H273.661V116.044Z" fill="#E5E6E5"/>
<path d="M273.661 130.778H247.107V131.933H273.661V130.778Z" fill="#DE910A"/>
<path d="M248.261 130.778H247.107V131.933H248.261V130.778Z" fill="#E5E6E5"/>
<path d="M273.661 130.778H272.506V131.933H273.661V130.778Z" fill="#E5E6E5"/>
<path d="M273.661 144.644H247.107V145.8H273.661V144.644Z" fill="#DE910A"/>
<path d="M248.261 144.644H247.107V145.8H248.261V144.644Z" fill="#E5E6E5"/>
<path d="M273.661 144.644H272.506V145.8H273.661V144.644Z" fill="#E5E6E5"/>
<path d="M273.661 158.8H247.107V159.956H273.661V158.8Z" fill="#DE910A"/>
<path d="M248.261 158.8H247.107V159.956H248.261V158.8Z" fill="#E5E6E5"/>
<path d="M273.661 158.8H272.506V159.956H273.661V158.8Z" fill="#E5E6E5"/>
<path d="M273.661 168.622H247.107V169.778H273.661V168.622Z" fill="#DE910A"/>
<path d="M248.261 168.622H247.107V169.778H248.261V168.622Z" fill="#E5E6E5"/>
<path d="M273.661 168.622H272.506V169.778H273.661V168.622Z" fill="#E5E6E5"/>
<path d="M277.413 12.3333H273.661V170.356H277.413V12.3333Z" fill="#E5A71D"/>
<path d="M275.104 12.3333H273.661V170.356H275.104V12.3333Z" fill="#F9B524"/>
<path d="M247.107 12.3333H243.355V170.356H247.107V12.3333Z" fill="#E5A71D"/>
<path d="M244.509 12.3333H243.355V170.356H244.509V12.3333Z" fill="#F9B524"/>
<defs>
<linearGradient id="paint0_linear" x1="613.944" y1="198.726" x2="621.687" y2="198.726" gradientUnits="userSpaceOnUse">
<stop stop-color="#152930"/>
<stop offset="1" stop-color="#3D6470"/>
</linearGradient>
<linearGradient id="paint1_linear" x1="613.992" y1="201.442" x2="621.644" y2="201.442" gradientUnits="userSpaceOnUse">
<stop stop-color="#152930"/>
<stop offset="1" stop-color="#3D6470"/>
</linearGradient>
<linearGradient id="paint2_linear" x1="613.992" y1="204.164" x2="621.644" y2="204.164" gradientUnits="userSpaceOnUse">
<stop stop-color="#152930"/>
<stop offset="1" stop-color="#3D6470"/>
</linearGradient>
<linearGradient id="paint3_linear" x1="613.992" y1="206.882" x2="621.644" y2="206.882" gradientUnits="userSpaceOnUse">
<stop stop-color="#152930"/>
<stop offset="1" stop-color="#3D6470"/>
</linearGradient>
<linearGradient id="paint4_linear" x1="613.944" y1="209.604" x2="621.687" y2="209.604" gradientUnits="userSpaceOnUse">
<stop stop-color="#152930"/>
<stop offset="1" stop-color="#3D6470"/>
</linearGradient>
<linearGradient id="paint5_linear" x1="602.965" y1="198.726" x2="595.222" y2="198.726" gradientUnits="userSpaceOnUse">
<stop stop-color="#152930"/>
<stop offset="1" stop-color="#3D6470"/>
</linearGradient>
<linearGradient id="paint6_linear" x1="602.915" y1="201.442" x2="595.265" y2="201.442" gradientUnits="userSpaceOnUse">
<stop stop-color="#152930"/>
<stop offset="1" stop-color="#3D6470"/>
</linearGradient>
<linearGradient id="paint7_linear" x1="602.915" y1="204.164" x2="595.265" y2="204.164" gradientUnits="userSpaceOnUse">
<stop stop-color="#152930"/>
<stop offset="1" stop-color="#3D6470"/>
</linearGradient>
<linearGradient id="paint8_linear" x1="602.915" y1="206.882" x2="595.265" y2="206.882" gradientUnits="userSpaceOnUse">
<stop stop-color="#152930"/>
<stop offset="1" stop-color="#3D6470"/>
</linearGradient>
<linearGradient id="paint9_linear" x1="602.965" y1="209.604" x2="595.222" y2="209.604" gradientUnits="userSpaceOnUse">
<stop stop-color="#152930"/>
<stop offset="1" stop-color="#3D6470"/>
</linearGradient>
<linearGradient id="paint10_linear" x1="600.485" y1="198.726" x2="608.23" y2="198.726" gradientUnits="userSpaceOnUse">
<stop stop-color="#467180"/>
<stop offset="0.262" stop-color="#7596A1"/>
<stop offset="0.2818" stop-color="#6E909B"/>
<stop offset="0.369" stop-color="#567985"/>
<stop offset="0.4672" stop-color="#436774"/>
<stop offset="0.5813" stop-color="#355A68"/>
<stop offset="0.7257" stop-color="#2D5361"/>
<stop offset="1" stop-color="#2B515F"/>
</linearGradient>
<linearGradient id="paint11_linear" x1="600.53" y1="201.442" x2="608.189" y2="201.442" gradientUnits="userSpaceOnUse">
<stop stop-color="#467180"/>
<stop offset="0.262" stop-color="#7596A1"/>
<stop offset="0.2818" stop-color="#6E909B"/>
<stop offset="0.369" stop-color="#567985"/>
<stop offset="0.4672" stop-color="#436774"/>
<stop offset="0.5813" stop-color="#355A68"/>
<stop offset="0.7257" stop-color="#2D5361"/>
<stop offset="1" stop-color="#2B515F"/>
</linearGradient>
<linearGradient id="paint12_linear" x1="600.53" y1="204.164" x2="608.189" y2="204.164" gradientUnits="userSpaceOnUse">
<stop stop-color="#467180"/>
<stop offset="0.262" stop-color="#7596A1"/>
<stop offset="0.2818" stop-color="#6E909B"/>
<stop offset="0.369" stop-color="#567985"/>
<stop offset="0.4672" stop-color="#436774"/>
<stop offset="0.5813" stop-color="#355A68"/>
<stop offset="0.7257" stop-color="#2D5361"/>
<stop offset="1" stop-color="#2B515F"/>
</linearGradient>
<linearGradient id="paint13_linear" x1="600.53" y1="206.882" x2="608.189" y2="206.882" gradientUnits="userSpaceOnUse">
<stop stop-color="#467180"/>
<stop offset="0.262" stop-color="#7596A1"/>
<stop offset="0.2818" stop-color="#6E909B"/>
<stop offset="0.369" stop-color="#567985"/>
<stop offset="0.4672" stop-color="#436774"/>
<stop offset="0.5813" stop-color="#355A68"/>
<stop offset="0.7257" stop-color="#2D5361"/>
<stop offset="1" stop-color="#2B515F"/>
</linearGradient>
<linearGradient id="paint14_linear" x1="600.485" y1="209.604" x2="608.23" y2="209.604" gradientUnits="userSpaceOnUse">
<stop stop-color="#467180"/>
<stop offset="0.262" stop-color="#7596A1"/>
<stop offset="0.2818" stop-color="#6E909B"/>
<stop offset="0.369" stop-color="#567985"/>
<stop offset="0.4672" stop-color="#436774"/>
<stop offset="0.5813" stop-color="#355A68"/>
<stop offset="0.7257" stop-color="#2D5361"/>
<stop offset="1" stop-color="#2B515F"/>
</linearGradient>
<linearGradient id="paint15_linear" x1="608.955" y1="198.726" x2="616.697" y2="198.726" gradientUnits="userSpaceOnUse">
<stop stop-color="#467180"/>
<stop offset="0.262" stop-color="#7596A1"/>
<stop offset="0.2818" stop-color="#6E909B"/>
<stop offset="0.369" stop-color="#567985"/>
<stop offset="0.4672" stop-color="#436774"/>
<stop offset="0.5813" stop-color="#355A68"/>
<stop offset="0.7257" stop-color="#2D5361"/>
<stop offset="1" stop-color="#2B515F"/>
</linearGradient>
<linearGradient id="paint16_linear" x1="608.998" y1="201.442" x2="616.653" y2="201.442" gradientUnits="userSpaceOnUse">
<stop stop-color="#467180"/>
<stop offset="0.262" stop-color="#7596A1"/>
<stop offset="0.2818" stop-color="#6E909B"/>
<stop offset="0.369" stop-color="#567985"/>
<stop offset="0.4672" stop-color="#436774"/>
<stop offset="0.5813" stop-color="#355A68"/>
<stop offset="0.7257" stop-color="#2D5361"/>
<stop offset="1" stop-color="#2B515F"/>
</linearGradient>
<linearGradient id="paint17_linear" x1="608.998" y1="204.164" x2="616.653" y2="204.164" gradientUnits="userSpaceOnUse">
<stop stop-color="#467180"/>
<stop offset="0.262" stop-color="#7596A1"/>
<stop offset="0.2818" stop-color="#6E909B"/>
<stop offset="0.369" stop-color="#567985"/>
<stop offset="0.4672" stop-color="#436774"/>
<stop offset="0.5813" stop-color="#355A68"/>
<stop offset="0.7257" stop-color="#2D5361"/>
<stop offset="1" stop-color="#2B515F"/>
</linearGradient>
<linearGradient id="paint18_linear" x1="608.998" y1="206.882" x2="616.653" y2="206.882" gradientUnits="userSpaceOnUse">
<stop stop-color="#467180"/>
<stop offset="0.262" stop-color="#7596A1"/>
<stop offset="0.2818" stop-color="#6E909B"/>
<stop offset="0.369" stop-color="#567985"/>
<stop offset="0.4672" stop-color="#436774"/>
<stop offset="0.5813" stop-color="#355A68"/>
<stop offset="0.7257" stop-color="#2D5361"/>
<stop offset="1" stop-color="#2B515F"/>
</linearGradient>
<linearGradient id="paint19_linear" x1="608.955" y1="209.604" x2="616.697" y2="209.604" gradientUnits="userSpaceOnUse">
<stop stop-color="#467180"/>
<stop offset="0.262" stop-color="#7596A1"/>
<stop offset="0.2818" stop-color="#6E909B"/>
<stop offset="0.369" stop-color="#567985"/>
<stop offset="0.4672" stop-color="#436774"/>
<stop offset="0.5813" stop-color="#355A68"/>
<stop offset="0.7257" stop-color="#2D5361"/>
<stop offset="1" stop-color="#2B515F"/>
</linearGradient>
<linearGradient id="paint20_linear" x1="775.424" y1="29.4211" x2="775.424" y2="168.573" gradientUnits="userSpaceOnUse">
<stop offset="0.0154497" stop-color="#F0BB29"/>
<stop offset="0.436" stop-color="#EFB928"/>
<stop offset="0.6188" stop-color="#EBB226"/>
<stop offset="0.7554" stop-color="#E4A522"/>
<stop offset="0.8691" stop-color="#DA931D"/>
<stop offset="0.9675" stop-color="#CD7C16"/>
<stop offset="1" stop-color="#C87313"/>
</linearGradient>
<linearGradient id="paint21_linear" x1="608.856" y1="30.2635" x2="608.856" y2="168.447" gradientUnits="userSpaceOnUse">
<stop offset="0.0154497" stop-color="#F0BB29"/>
<stop offset="0.436" stop-color="#EFB928"/>
<stop offset="0.6188" stop-color="#EBB226"/>
<stop offset="0.7554" stop-color="#E4A522"/>
<stop offset="0.8691" stop-color="#DA931D"/>
<stop offset="0.9675" stop-color="#CD7C16"/>
<stop offset="1" stop-color="#C87313"/>
</linearGradient>
<linearGradient id="paint22_linear" x1="770.624" y1="2.06565" x2="778.138" y2="2.06565" gradientUnits="userSpaceOnUse">
<stop offset="0.0154497" stop-color="#F0BB29"/>
<stop offset="0.2264" stop-color="#EDB627"/>
<stop offset="0.4795" stop-color="#E5A723"/>
<stop offset="0.7529" stop-color="#D88F1C"/>
<stop offset="1" stop-color="#C87313"/>
</linearGradient>
<linearGradient id="paint23_linear" x1="751.691" y1="18.2382" x2="797.584" y2="18.2382" gradientUnits="userSpaceOnUse">
<stop offset="0.0154497" stop-color="#F0BB29"/>
<stop offset="0.2264" stop-color="#EDB627"/>
<stop offset="0.4795" stop-color="#E5A723"/>
<stop offset="0.7529" stop-color="#D88F1C"/>
<stop offset="1" stop-color="#C87313"/>
</linearGradient>
<linearGradient id="paint24_linear" x1="753.049" y1="29.476" x2="796.217" y2="29.476" gradientUnits="userSpaceOnUse">
<stop offset="0.0154497" stop-color="#D89A1F"/>
<stop offset="0.2792" stop-color="#D4951E"/>
<stop offset="0.5953" stop-color="#CA861B"/>
<stop offset="0.9372" stop-color="#B96E17"/>
<stop offset="1" stop-color="#B56916"/>
</linearGradient>
<linearGradient id="paint25_linear" x1="763.311" y1="-9.28482" x2="781.061" y2="17.7738" gradientUnits="userSpaceOnUse">
<stop offset="0.0154497" stop-color="#F0BB29"/>
<stop offset="0.436" stop-color="#EFB928"/>
<stop offset="0.6188" stop-color="#EBB226"/>
<stop offset="0.7554" stop-color="#E4A522"/>
<stop offset="0.8691" stop-color="#DA931D"/>
<stop offset="0.9675" stop-color="#CD7C16"/>
<stop offset="1" stop-color="#C87313"/>
</linearGradient>
<linearGradient id="paint26_linear" x1="750.352" y1="8.99466" x2="798.918" y2="8.99466" gradientUnits="userSpaceOnUse">
<stop stop-color="#FCC62E"/>
<stop offset="0.1974" stop-color="#F9C12C"/>
<stop offset="0.4341" stop-color="#F0B228"/>
<stop offset="0.6909" stop-color="#E19A20"/>
<stop offset="0.9604" stop-color="#CB7915"/>
<stop offset="1" stop-color="#C87313"/>
</linearGradient>
<linearGradient id="paint27_linear" x1="99.6117" y1="198.726" x2="107.357" y2="198.726" gradientUnits="userSpaceOnUse">
<stop stop-color="#152930"/>
<stop offset="1" stop-color="#3D6470"/>
</linearGradient>
<linearGradient id="paint28_linear" x1="99.6567" y1="201.442" x2="107.312" y2="201.442" gradientUnits="userSpaceOnUse">
<stop stop-color="#152930"/>
<stop offset="1" stop-color="#3D6470"/>
</linearGradient>
<linearGradient id="paint29_linear" x1="99.6567" y1="204.164" x2="107.312" y2="204.164" gradientUnits="userSpaceOnUse">
<stop stop-color="#152930"/>
<stop offset="1" stop-color="#3D6470"/>
</linearGradient>
<linearGradient id="paint30_linear" x1="99.6567" y1="206.882" x2="107.312" y2="206.882" gradientUnits="userSpaceOnUse">
<stop stop-color="#152930"/>
<stop offset="1" stop-color="#3D6470"/>
</linearGradient>
<linearGradient id="paint31_linear" x1="99.6117" y1="209.604" x2="107.357" y2="209.604" gradientUnits="userSpaceOnUse">
<stop stop-color="#152930"/>
<stop offset="1" stop-color="#3D6470"/>
</linearGradient>
<linearGradient id="paint32_linear" x1="88.6358" y1="198.726" x2="80.8902" y2="198.726" gradientUnits="userSpaceOnUse">
<stop stop-color="#152930"/>
<stop offset="1" stop-color="#3D6470"/>
</linearGradient>
<linearGradient id="paint33_linear" x1="88.5823" y1="201.442" x2="80.9325" y2="201.442" gradientUnits="userSpaceOnUse">
<stop stop-color="#152930"/>
<stop offset="1" stop-color="#3D6470"/>
</linearGradient>
<linearGradient id="paint34_linear" x1="88.5823" y1="204.164" x2="80.9325" y2="204.164" gradientUnits="userSpaceOnUse">
<stop stop-color="#152930"/>
<stop offset="1" stop-color="#3D6470"/>
</linearGradient>
<linearGradient id="paint35_linear" x1="88.5823" y1="206.882" x2="80.9325" y2="206.882" gradientUnits="userSpaceOnUse">
<stop stop-color="#152930"/>
<stop offset="1" stop-color="#3D6470"/>
</linearGradient>
<linearGradient id="paint36_linear" x1="88.6358" y1="209.604" x2="80.8902" y2="209.604" gradientUnits="userSpaceOnUse">
<stop stop-color="#152930"/>
<stop offset="1" stop-color="#3D6470"/>
</linearGradient>
<linearGradient id="paint37_linear" x1="86.1527" y1="198.726" x2="93.9013" y2="198.726" gradientUnits="userSpaceOnUse">
<stop stop-color="#467180"/>
<stop offset="0.262" stop-color="#7596A1"/>
<stop offset="0.2818" stop-color="#6E909B"/>
<stop offset="0.369" stop-color="#567985"/>
<stop offset="0.4672" stop-color="#436774"/>
<stop offset="0.5813" stop-color="#355A68"/>
<stop offset="0.7257" stop-color="#2D5361"/>
<stop offset="1" stop-color="#2B515F"/>
</linearGradient>
<linearGradient id="paint38_linear" x1="86.2011" y1="201.442" x2="93.8622" y2="201.442" gradientUnits="userSpaceOnUse">
<stop stop-color="#467180"/>
<stop offset="0.262" stop-color="#7596A1"/>
<stop offset="0.2818" stop-color="#6E909B"/>
<stop offset="0.369" stop-color="#567985"/>
<stop offset="0.4672" stop-color="#436774"/>
<stop offset="0.5813" stop-color="#355A68"/>
<stop offset="0.7257" stop-color="#2D5361"/>
<stop offset="1" stop-color="#2B515F"/>
</linearGradient>
<linearGradient id="paint39_linear" x1="86.2011" y1="204.164" x2="93.8622" y2="204.164" gradientUnits="userSpaceOnUse">
<stop stop-color="#467180"/>
<stop offset="0.262" stop-color="#7596A1"/>
<stop offset="0.2818" stop-color="#6E909B"/>
<stop offset="0.369" stop-color="#567985"/>
<stop offset="0.4672" stop-color="#436774"/>
<stop offset="0.5813" stop-color="#355A68"/>
<stop offset="0.7257" stop-color="#2D5361"/>
<stop offset="1" stop-color="#2B515F"/>
</linearGradient>
<linearGradient id="paint40_linear" x1="86.2011" y1="206.882" x2="93.8622" y2="206.882" gradientUnits="userSpaceOnUse">
<stop stop-color="#467180"/>
<stop offset="0.262" stop-color="#7596A1"/>
<stop offset="0.2818" stop-color="#6E909B"/>
<stop offset="0.369" stop-color="#567985"/>
<stop offset="0.4672" stop-color="#436774"/>
<stop offset="0.5813" stop-color="#355A68"/>
<stop offset="0.7257" stop-color="#2D5361"/>
<stop offset="1" stop-color="#2B515F"/>
</linearGradient>
<linearGradient id="paint41_linear" x1="86.1527" y1="209.604" x2="93.9013" y2="209.604" gradientUnits="userSpaceOnUse">
<stop stop-color="#467180"/>
<stop offset="0.262" stop-color="#7596A1"/>
<stop offset="0.2818" stop-color="#6E909B"/>
<stop offset="0.369" stop-color="#567985"/>
<stop offset="0.4672" stop-color="#436774"/>
<stop offset="0.5813" stop-color="#355A68"/>
<stop offset="0.7257" stop-color="#2D5361"/>
<stop offset="1" stop-color="#2B515F"/>
</linearGradient>
<linearGradient id="paint42_linear" x1="94.6169" y1="198.726" x2="102.363" y2="198.726" gradientUnits="userSpaceOnUse">
<stop stop-color="#467180"/>
<stop offset="0.262" stop-color="#7596A1"/>
<stop offset="0.2818" stop-color="#6E909B"/>
<stop offset="0.369" stop-color="#567985"/>
<stop offset="0.4672" stop-color="#436774"/>
<stop offset="0.5813" stop-color="#355A68"/>
<stop offset="0.7257" stop-color="#2D5361"/>
<stop offset="1" stop-color="#2B515F"/>
</linearGradient>
<linearGradient id="paint43_linear" x1="94.6684" y1="201.442" x2="102.321" y2="201.442" gradientUnits="userSpaceOnUse">
<stop stop-color="#467180"/>
<stop offset="0.262" stop-color="#7596A1"/>
<stop offset="0.2818" stop-color="#6E909B"/>
<stop offset="0.369" stop-color="#567985"/>
<stop offset="0.4672" stop-color="#436774"/>
<stop offset="0.5813" stop-color="#355A68"/>
<stop offset="0.7257" stop-color="#2D5361"/>
<stop offset="1" stop-color="#2B515F"/>
</linearGradient>
<linearGradient id="paint44_linear" x1="94.6684" y1="204.164" x2="102.321" y2="204.164" gradientUnits="userSpaceOnUse">
<stop stop-color="#467180"/>
<stop offset="0.262" stop-color="#7596A1"/>
<stop offset="0.2818" stop-color="#6E909B"/>
<stop offset="0.369" stop-color="#567985"/>
<stop offset="0.4672" stop-color="#436774"/>
<stop offset="0.5813" stop-color="#355A68"/>
<stop offset="0.7257" stop-color="#2D5361"/>
<stop offset="1" stop-color="#2B515F"/>
</linearGradient>
<linearGradient id="paint45_linear" x1="94.6684" y1="206.882" x2="102.321" y2="206.882" gradientUnits="userSpaceOnUse">
<stop stop-color="#467180"/>
<stop offset="0.262" stop-color="#7596A1"/>
<stop offset="0.2818" stop-color="#6E909B"/>
<stop offset="0.369" stop-color="#567985"/>
<stop offset="0.4672" stop-color="#436774"/>
<stop offset="0.5813" stop-color="#355A68"/>
<stop offset="0.7257" stop-color="#2D5361"/>
<stop offset="1" stop-color="#2B515F"/>
</linearGradient>
<linearGradient id="paint46_linear" x1="94.6169" y1="209.604" x2="102.363" y2="209.604" gradientUnits="userSpaceOnUse">
<stop stop-color="#467180"/>
<stop offset="0.262" stop-color="#7596A1"/>
<stop offset="0.2818" stop-color="#6E909B"/>
<stop offset="0.369" stop-color="#567985"/>
<stop offset="0.4672" stop-color="#436774"/>
<stop offset="0.5813" stop-color="#355A68"/>
<stop offset="0.7257" stop-color="#2D5361"/>
<stop offset="1" stop-color="#2B515F"/>
</linearGradient>
<linearGradient id="paint47_linear" x1="421" y1="198.726" x2="413.254" y2="198.726" gradientUnits="userSpaceOnUse">
<stop stop-color="#152930"/>
<stop offset="1" stop-color="#3D6470"/>
</linearGradient>
<linearGradient id="paint48_linear" x1="420.955" y1="201.442" x2="413.294" y2="201.442" gradientUnits="userSpaceOnUse">
<stop stop-color="#152930"/>
<stop offset="1" stop-color="#3D6470"/>
</linearGradient>
<linearGradient id="paint49_linear" x1="420.955" y1="204.164" x2="413.294" y2="204.164" gradientUnits="userSpaceOnUse">
<stop stop-color="#152930"/>
<stop offset="1" stop-color="#3D6470"/>
</linearGradient>
<linearGradient id="paint50_linear" x1="420.955" y1="206.882" x2="413.294" y2="206.882" gradientUnits="userSpaceOnUse">
<stop stop-color="#152930"/>
<stop offset="1" stop-color="#3D6470"/>
</linearGradient>
<linearGradient id="paint51_linear" x1="421" y1="209.604" x2="413.254" y2="209.604" gradientUnits="userSpaceOnUse">
<stop stop-color="#152930"/>
<stop offset="1" stop-color="#3D6470"/>
</linearGradient>
<linearGradient id="paint52_linear" x1="431.975" y1="198.726" x2="439.727" y2="198.726" gradientUnits="userSpaceOnUse">
<stop stop-color="#152930"/>
<stop offset="1" stop-color="#3D6470"/>
</linearGradient>
<linearGradient id="paint53_linear" x1="432.026" y1="201.442" x2="439.679" y2="201.442" gradientUnits="userSpaceOnUse">
<stop stop-color="#152930"/>
<stop offset="1" stop-color="#3D6470"/>
</linearGradient>
<linearGradient id="paint54_linear" x1="432.026" y1="204.164" x2="439.679" y2="204.164" gradientUnits="userSpaceOnUse">
<stop stop-color="#152930"/>
<stop offset="1" stop-color="#3D6470"/>
</linearGradient>
<linearGradient id="paint55_linear" x1="432.026" y1="206.882" x2="439.679" y2="206.882" gradientUnits="userSpaceOnUse">
<stop stop-color="#152930"/>
<stop offset="1" stop-color="#3D6470"/>
</linearGradient>
<linearGradient id="paint56_linear" x1="431.975" y1="209.604" x2="439.727" y2="209.604" gradientUnits="userSpaceOnUse">
<stop stop-color="#152930"/>
<stop offset="1" stop-color="#3D6470"/>
</linearGradient>
<linearGradient id="paint57_linear" x1="434.453" y1="198.726" x2="426.71" y2="198.726" gradientUnits="userSpaceOnUse">
<stop stop-color="#467180"/>
<stop offset="0.262" stop-color="#7596A1"/>
<stop offset="0.2818" stop-color="#6E909B"/>
<stop offset="0.369" stop-color="#567985"/>
<stop offset="0.4672" stop-color="#436774"/>
<stop offset="0.5813" stop-color="#355A68"/>
<stop offset="0.7257" stop-color="#2D5361"/>
<stop offset="1" stop-color="#2B515F"/>
</linearGradient>
<linearGradient id="paint58_linear" x1="434.411" y1="201.442" x2="426.761" y2="201.442" gradientUnits="userSpaceOnUse">
<stop stop-color="#467180"/>
<stop offset="0.262" stop-color="#7596A1"/>
<stop offset="0.2818" stop-color="#6E909B"/>
<stop offset="0.369" stop-color="#567985"/>
<stop offset="0.4672" stop-color="#436774"/>
<stop offset="0.5813" stop-color="#355A68"/>
<stop offset="0.7257" stop-color="#2D5361"/>
<stop offset="1" stop-color="#2B515F"/>
</linearGradient>
<linearGradient id="paint59_linear" x1="434.411" y1="204.164" x2="426.761" y2="204.164" gradientUnits="userSpaceOnUse">
<stop stop-color="#467180"/>
<stop offset="0.262" stop-color="#7596A1"/>
<stop offset="0.2818" stop-color="#6E909B"/>
<stop offset="0.369" stop-color="#567985"/>
<stop offset="0.4672" stop-color="#436774"/>
<stop offset="0.5813" stop-color="#355A68"/>
<stop offset="0.7257" stop-color="#2D5361"/>
<stop offset="1" stop-color="#2B515F"/>
</linearGradient>
<linearGradient id="paint60_linear" x1="434.411" y1="206.882" x2="426.761" y2="206.882" gradientUnits="userSpaceOnUse">
<stop stop-color="#467180"/>
<stop offset="0.262" stop-color="#7596A1"/>
<stop offset="0.2818" stop-color="#6E909B"/>
<stop offset="0.369" stop-color="#567985"/>
<stop offset="0.4672" stop-color="#436774"/>
<stop offset="0.5813" stop-color="#355A68"/>
<stop offset="0.7257" stop-color="#2D5361"/>
<stop offset="1" stop-color="#2B515F"/>
</linearGradient>
<linearGradient id="paint61_linear" x1="434.453" y1="209.604" x2="426.71" y2="209.604" gradientUnits="userSpaceOnUse">
<stop stop-color="#467180"/>
<stop offset="0.262" stop-color="#7596A1"/>
<stop offset="0.2818" stop-color="#6E909B"/>
<stop offset="0.369" stop-color="#567985"/>
<stop offset="0.4672" stop-color="#436774"/>
<stop offset="0.5813" stop-color="#355A68"/>
<stop offset="0.7257" stop-color="#2D5361"/>
<stop offset="1" stop-color="#2B515F"/>
</linearGradient>
<linearGradient id="paint62_linear" x1="425.994" y1="198.726" x2="418.246" y2="198.726" gradientUnits="userSpaceOnUse">
<stop stop-color="#467180"/>
<stop offset="0.262" stop-color="#7596A1"/>
<stop offset="0.2818" stop-color="#6E909B"/>
<stop offset="0.369" stop-color="#567985"/>
<stop offset="0.4672" stop-color="#436774"/>
<stop offset="0.5813" stop-color="#355A68"/>
<stop offset="0.7257" stop-color="#2D5361"/>
<stop offset="1" stop-color="#2B515F"/>
</linearGradient>
<linearGradient id="paint63_linear" x1="425.941" y1="201.442" x2="418.294" y2="201.442" gradientUnits="userSpaceOnUse">
<stop stop-color="#467180"/>
<stop offset="0.262" stop-color="#7596A1"/>
<stop offset="0.2818" stop-color="#6E909B"/>
<stop offset="0.369" stop-color="#567985"/>
<stop offset="0.4672" stop-color="#436774"/>
<stop offset="0.5813" stop-color="#355A68"/>
<stop offset="0.7257" stop-color="#2D5361"/>
<stop offset="1" stop-color="#2B515F"/>
</linearGradient>
<linearGradient id="paint64_linear" x1="425.941" y1="204.164" x2="418.294" y2="204.164" gradientUnits="userSpaceOnUse">
<stop stop-color="#467180"/>
<stop offset="0.262" stop-color="#7596A1"/>
<stop offset="0.2818" stop-color="#6E909B"/>
<stop offset="0.369" stop-color="#567985"/>
<stop offset="0.4672" stop-color="#436774"/>
<stop offset="0.5813" stop-color="#355A68"/>
<stop offset="0.7257" stop-color="#2D5361"/>
<stop offset="1" stop-color="#2B515F"/>
</linearGradient>
<linearGradient id="paint65_linear" x1="425.941" y1="206.882" x2="418.294" y2="206.882" gradientUnits="userSpaceOnUse">
<stop stop-color="#467180"/>
<stop offset="0.262" stop-color="#7596A1"/>
<stop offset="0.2818" stop-color="#6E909B"/>
<stop offset="0.369" stop-color="#567985"/>
<stop offset="0.4672" stop-color="#436774"/>
<stop offset="0.5813" stop-color="#355A68"/>
<stop offset="0.7257" stop-color="#2D5361"/>
<stop offset="1" stop-color="#2B515F"/>
</linearGradient>
<linearGradient id="paint66_linear" x1="425.994" y1="209.604" x2="418.246" y2="209.604" gradientUnits="userSpaceOnUse">
<stop stop-color="#467180"/>
<stop offset="0.262" stop-color="#7596A1"/>
<stop offset="0.2818" stop-color="#6E909B"/>
<stop offset="0.369" stop-color="#567985"/>
<stop offset="0.4672" stop-color="#436774"/>
<stop offset="0.5813" stop-color="#355A68"/>
<stop offset="0.7257" stop-color="#2D5361"/>
<stop offset="1" stop-color="#2B515F"/>
</linearGradient>
<linearGradient id="paint67_linear" x1="261.089" y1="29.4211" x2="261.089" y2="168.573" gradientUnits="userSpaceOnUse">
<stop offset="0.0154497" stop-color="#F0BB29"/>
<stop offset="0.436" stop-color="#EFB928"/>
<stop offset="0.6188" stop-color="#EBB226"/>
<stop offset="0.7554" stop-color="#E4A522"/>
<stop offset="0.8691" stop-color="#DA931D"/>
<stop offset="0.9675" stop-color="#CD7C16"/>
<stop offset="1" stop-color="#C87313"/>
</linearGradient>
<linearGradient id="paint68_linear" x1="94.5256" y1="30.2635" x2="94.5256" y2="168.447" gradientUnits="userSpaceOnUse">
<stop offset="0.0154497" stop-color="#F0BB29"/>
<stop offset="0.436" stop-color="#EFB928"/>
<stop offset="0.6188" stop-color="#EBB226"/>
<stop offset="0.7554" stop-color="#E4A522"/>
<stop offset="0.8691" stop-color="#DA931D"/>
<stop offset="0.9675" stop-color="#CD7C16"/>
<stop offset="1" stop-color="#C87313"/>
</linearGradient>
<linearGradient id="paint69_linear" x1="425.771" y1="30.2635" x2="425.771" y2="168.447" gradientUnits="userSpaceOnUse">
<stop offset="0.0154497" stop-color="#F0BB29"/>
<stop offset="0.436" stop-color="#EFB928"/>
<stop offset="0.6188" stop-color="#EBB226"/>
<stop offset="0.7554" stop-color="#E4A522"/>
<stop offset="0.8691" stop-color="#DA931D"/>
<stop offset="0.9675" stop-color="#CD7C16"/>
<stop offset="1" stop-color="#C87313"/>
</linearGradient>
<linearGradient id="paint70_linear" x1="256.289" y1="2.06565" x2="263.809" y2="2.06565" gradientUnits="userSpaceOnUse">
<stop offset="0.0154497" stop-color="#F0BB29"/>
<stop offset="0.2264" stop-color="#EDB627"/>
<stop offset="0.4795" stop-color="#E5A723"/>
<stop offset="0.7529" stop-color="#D88F1C"/>
<stop offset="1" stop-color="#C87313"/>
</linearGradient>
<linearGradient id="paint71_linear" x1="237.353" y1="18.2382" x2="283.258" y2="18.2382" gradientUnits="userSpaceOnUse">
<stop offset="0.0154497" stop-color="#F0BB29"/>
<stop offset="0.2264" stop-color="#EDB627"/>
<stop offset="0.4795" stop-color="#E5A723"/>
<stop offset="0.7529" stop-color="#D88F1C"/>
<stop offset="1" stop-color="#C87313"/>
</linearGradient>
<linearGradient id="paint72_linear" x1="238.72" y1="29.476" x2="281.888" y2="29.476" gradientUnits="userSpaceOnUse">
<stop offset="0.0154497" stop-color="#D89A1F"/>
<stop offset="0.2792" stop-color="#D4951E"/>
<stop offset="0.5953" stop-color="#CA861B"/>
<stop offset="0.9372" stop-color="#B96E17"/>
<stop offset="1" stop-color="#B56916"/>
</linearGradient>
<linearGradient id="paint73_linear" x1="248.977" y1="-9.28829" x2="266.73" y2="17.7764" gradientUnits="userSpaceOnUse">
<stop offset="0.0154497" stop-color="#F0BB29"/>
<stop offset="0.436" stop-color="#EFB928"/>
<stop offset="0.6188" stop-color="#EBB226"/>
<stop offset="0.7554" stop-color="#E4A522"/>
<stop offset="0.8691" stop-color="#DA931D"/>
<stop offset="0.9675" stop-color="#CD7C16"/>
<stop offset="1" stop-color="#C87313"/>
</linearGradient>
<linearGradient id="paint74_linear" x1="236.023" y1="8.99466" x2="284.588" y2="8.99466" gradientUnits="userSpaceOnUse">
<stop stop-color="#FCC62E"/>
<stop offset="0.1974" stop-color="#F9C12C"/>
<stop offset="0.4341" stop-color="#F0B228"/>
<stop offset="0.6909" stop-color="#E19A20"/>
<stop offset="0.9604" stop-color="#CB7915"/>
<stop offset="1" stop-color="#C87313"/>
</linearGradient>
</defs>
</svg>
