<svg width="25" height="25" viewBox="0 0 25 25" fill="none" xmlns="http://www.w3.org/2000/svg">
<path d="M13.8809 12.5008L24.7137 1.6679C25.0951 1.2865 25.0951 0.668143 24.7137 0.286796C24.3323 -0.0945504 23.7139 -0.0945993 23.3326 0.286796L12.4997 11.1197L1.6669 0.286796C1.2855 -0.0945993 0.667143 -0.0945993 0.285797 0.286796C-0.0955499 0.668191 -0.0955987 1.28655 0.285797 1.6679L11.1186 12.5007L0.285797 23.3336C-0.0955987 23.715 -0.0955987 24.3334 0.285797 24.7147C0.47647 24.9054 0.72642 25.0007 0.976371 25.0007C1.22632 25.0007 1.47622 24.9054 1.66695 24.7147L12.4997 13.8819L23.3326 24.7147C23.5232 24.9054 23.7732 25.0007 24.0231 25.0007C24.2731 25.0007 24.523 24.9054 24.7137 24.7147C25.0951 24.3333 25.0951 23.7149 24.7137 23.3336L13.8809 12.5008Z" fill="white"/>
</svg>
