<svg width="46" height="46" viewBox="0 0 46 46" fill="none" xmlns="http://www.w3.org/2000/svg">
<path d="M4.79164 0H41.2083C43.8547 0 46 2.14529 46 4.79164V41.2083C46 43.8547 43.8547 46 41.2084 46H4.79164C2.14529 46 0 43.8547 0 41.2084V4.79164C0 2.14529 2.14529 0 4.79164 0Z" fill="white"/>
<path d="M35.4587 13.4166H39.2921C39.8214 13.4166 40.2504 12.9875 40.2504 12.4583V6.70827C40.2504 6.17909 39.8213 5.75 39.292 5.75H35.4586C29.6367 5.75 24.917 10.4697 24.917 16.2916V21.0833H20.1254C19.5961 21.0833 19.167 21.5124 19.167 22.0416V27.7916C19.167 28.3209 19.5961 28.75 20.1254 28.75H24.917V46H32.5836V28.75H37.3754C37.7876 28.7497 38.1536 28.4857 38.2839 28.0945L40.2005 22.3445C40.3678 21.8424 40.0963 21.2997 39.5941 21.1324C39.4967 21.1 39.3947 21.0834 39.292 21.0833H32.5836V16.2916C32.5837 14.7038 33.8709 13.4166 35.4587 13.4166Z" fill="#6AB04C"/>
</svg>
