<svg width="46" height="46" viewBox="0 0 46 46" fill="none" xmlns="http://www.w3.org/2000/svg">
<g clip-path="url(#clip0)">
<path d="M43.1246 3.1299C46.7394 6.88465 45.9996 10.8732 45.9996 22.9904C45.9996 33.0529 47.7552 43.1403 38.5667 45.5151C35.6975 46.253 10.2748 46.253 7.40941 45.5112C3.58374 44.5242 0.471081 41.4211 0.045578 36.0103C-0.0138359 35.2552 -0.0138397 10.7391 0.047493 9.96856C0.499825 4.20515 4.04758 0.883561 8.72233 0.21081C9.79375 0.0555604 10.0084 0.00956041 15.5054 -2.29329e-05C35.0037 0.00956041 39.2778 -0.85869 43.1246 3.1299Z" fill="white"/>
<path d="M23.0039 6.01639C29.9633 6.01639 36.5719 5.39731 39.0962 11.8756C40.1389 14.5513 39.9874 18.0262 39.9874 23.0019C39.9874 27.3681 40.1274 31.4716 39.0962 34.1262C36.5777 40.6084 29.9154 39.9874 23.0077 39.9874C16.3434 39.9874 9.47219 40.6812 6.91727 34.1262C5.87269 31.4237 6.02603 28.0006 6.02603 23.0019C6.02603 16.3664 5.65994 12.0826 8.87803 8.86648C12.1364 5.60814 16.5428 6.01639 23.0115 6.01639H23.0039ZM24.5257 9.07731C10.0089 9.05431 8.1612 7.44048 9.18086 29.8597C9.54311 37.789 15.5806 36.9188 23.0019 36.9188C36.5336 36.9188 36.9227 36.5316 36.9227 22.9942C36.9227 9.29964 35.8494 9.08498 24.5257 9.07348V9.07731ZM13.938 11.8967C15.0631 11.8967 15.9754 12.8091 15.9754 13.9341C15.9754 15.0592 15.0631 15.9716 13.938 15.9716C12.8129 15.9716 11.9006 15.0592 11.9006 13.9341C11.9006 12.8091 12.8129 11.8967 13.938 11.8967ZM23.0039 14.2791C27.8204 14.2791 31.7247 18.1853 31.7247 23.0019C31.7247 27.8185 27.8204 31.7227 23.0039 31.7227C18.1873 31.7227 14.2849 27.8185 14.2849 23.0019C14.2849 18.1853 18.1873 14.2791 23.0039 14.2791ZM23.0039 17.3401C15.5193 17.3401 15.5097 28.6637 23.0039 28.6637C30.4865 28.6637 30.498 17.3401 23.0039 17.3401Z" fill="#6AB04C"/>
</g>
<defs>
<clipPath id="clip0">
<rect width="46" height="46" fill="white" transform="matrix(-1 0 0 1 46 0)"/>
</clipPath>
</defs>
</svg>
