<svg width="290" height="80" viewBox="0 0 290 80" fill="none" xmlns="http://www.w3.org/2000/svg">
<path fill-rule="evenodd" clip-rule="evenodd" d="M40 0C17.9086 0 0 17.9086 0 40C0 62.0914 17.9087 80 40 80H249.778C271.869 80 289.778 62.0914 289.778 40C289.778 17.9086 271.869 0 249.778 0H40ZM56.3027 43.9849V51.0782H59.7623L60.0111 47.4445H70.9125V51.0782H74.1231L74.6209 43.9849H72.5303V30.0222H59.8618V32.0631C59.8618 34.917 59.7125 37.2234 59.4138 38.9822C59.1151 40.7411 58.6257 42.4086 57.9454 43.9849H56.3027ZM63.5454 33.4818H68.6974V43.9849H61.9774C63.0227 41.4462 63.5454 38.5342 63.5454 35.2489V33.4818ZM77.2973 30.0222V47.4445H90.563V44.0347H81.1053V40.376H89.3186V36.9662H81.1053V33.432H90.4386V30.0222H77.2973ZM98.0278 33.5565V47.4445H101.861V33.5565H107.162V30.0222H92.7264V33.5565H98.0278ZM116.083 29.8978L108.616 47.4445H112.524L114.117 43.5369H121.484L123.077 47.4445H127.084L119.617 29.8978H116.083ZM117.8 34.5022L120.115 40.152H115.486L117.8 34.5022ZM144.532 30.0222H132.088V33.6311C132.088 35.9209 132.021 37.7959 131.889 39.256C131.756 40.6996 131.532 41.7864 131.217 42.5165C130.918 43.2465 130.586 43.736 130.221 43.9849C129.872 44.2172 129.416 44.3333 128.852 44.3333C128.686 44.3333 128.487 44.3168 128.255 44.2836L128.006 47.4445C128.57 47.5938 129.242 47.6685 130.022 47.6685C131.416 47.6685 132.502 47.3117 133.282 46.5982C134.062 45.8848 134.651 44.5905 135.049 42.7156C135.464 40.8406 135.672 38.2024 135.672 34.8009V33.4818H140.699V47.4445H144.532V30.0222ZM148.707 30.0222V47.4445H155.999C158.04 47.4445 159.65 46.9218 160.828 45.8765C162.023 44.8145 162.62 43.3876 162.62 41.5956C162.62 39.8699 162.056 38.501 160.927 37.4889C159.799 36.4602 158.239 35.9458 156.248 35.9458H152.54V30.0222H148.707ZM152.54 39.2311H155.925C157.85 39.2311 158.812 40.0027 158.812 41.5458C158.812 43.1719 157.858 43.9849 155.95 43.9849H152.54V39.2311ZM165.551 30.0222V47.4445H169.384V40.4507H176.452V47.4445H180.285V30.0222H176.452V36.9165H169.384V30.0222H165.551ZM184.635 30.0222V47.4445H188.468V30.0222H184.635ZM216.74 47.4445V30.0222H212.907V43.9849H206.685V30.0222H202.852V43.9849H196.654V30.0222H192.822V47.4445H216.74ZM220.919 30.0222V47.4445H234.185V44.0347H224.727V40.376H232.94V36.9662H224.727V33.432H234.06V30.0222H220.919Z" fill="white"/>
</svg>
