<svg width="578" height="442" viewBox="0 0 578 442" fill="none" xmlns="http://www.w3.org/2000/svg">
<path d="M513 2C577 2 605 110 461 114" stroke="#6AB04C" stroke-width="4" stroke-dasharray="10 5"/>
<path d="M79.263 108C15.263 108 -38 210 106 214" stroke="#6AB04C" stroke-width="4" stroke-dasharray="10 5"/>
<path d="M98 313C34 313 -26 425 62 440" stroke="#6AB04C" stroke-width="4" stroke-dasharray="10 5"/>
<path d="M417 216C481 216 530 288 426.737 321" stroke="#6AB04C" stroke-width="4" stroke-dasharray="10 5"/>
<circle cx="560" cy="58" r="18" fill="#6AB04C"/>
<circle cx="18" cy="162" r="18" fill="#6AB04C"/>
<circle cx="483" cy="267" r="18" fill="#6AB04C"/>
<circle cx="18" cy="377" r="18" fill="#6AB04C"/>
<path d="M554.22 49.7813L559.995 48.145H563.969V68H558.592V53.2463L555.265 54.0025L554.22 49.7813Z" fill="white"/>
<path d="M9.935 172V167.889L17.305 162.251C18.2308 161.555 18.8817 160.94 19.2575 160.409C19.6425 159.868 19.835 159.3 19.835 158.704C19.835 158.09 19.6333 157.604 19.23 157.246C18.8358 156.889 18.3087 156.71 17.6487 156.71C17.0071 156.71 16.3929 156.903 15.8062 157.288C15.2196 157.673 14.5275 158.323 13.73 159.24L10.045 156.174C11.1725 154.707 12.3321 153.639 13.5237 152.97C14.7246 152.292 16.2371 151.953 18.0612 151.953C20.2154 151.953 21.9662 152.539 23.3137 153.713C24.6612 154.886 25.335 156.412 25.335 158.291C25.335 159.061 25.2387 159.763 25.0462 160.395C24.8629 161.018 24.5604 161.605 24.1387 162.155C23.7262 162.696 23.2633 163.195 22.75 163.654C22.2367 164.103 21.5767 164.612 20.77 165.18L17.3875 167.545H25.5275V172H9.935Z" fill="white"/>
<path d="M475.509 273.906L478.946 270.469C480.422 271.972 481.99 272.724 483.649 272.724C484.428 272.724 485.042 272.54 485.491 272.174C485.95 271.798 486.179 271.294 486.179 270.661C486.179 270.029 485.899 269.534 485.34 269.176C484.79 268.819 484.002 268.64 482.975 268.64H480.665L479.867 265.794L484.405 261.71H476.856V257.283H491.101V261.201L486.399 265.23C487.141 265.395 487.806 265.62 488.392 265.904C488.979 266.179 489.511 266.536 489.987 266.976C490.473 267.416 490.845 267.962 491.101 268.613C491.367 269.263 491.5 270.001 491.5 270.826C491.5 272.806 490.785 274.397 489.355 275.598C487.934 276.798 486.115 277.399 483.896 277.399C480.404 277.399 477.608 276.235 475.509 273.906Z" fill="white"/>
<path d="M7.37125 379.314L17.5875 367.145H23.1012V379.094H25.6175V383.164H23.1012V387H17.8075V383.164H8.265L7.37125 379.314ZM13.105 379.121H17.8075V373.456L13.105 379.121Z" fill="white"/>
</svg>
