<svg width="257" height="552" viewBox="0 0 257 552" fill="none" xmlns="http://www.w3.org/2000/svg">
<rect width="257" height="552" fill="#6AB04C"/>
<path d="M60.1084 253.468L74.7733 257.789C75.2285 257.922 75.6514 258.148 76.0151 258.452L80.4741 262.167L84.2271 258.141L78.0644 253.134C77.9092 253.007 77.7301 252.913 77.5384 252.857L61.6648 248.182C61.2805 248.069 60.8669 248.113 60.5149 248.305C60.1629 248.497 59.9016 248.82 59.7883 249.205L59.0873 251.594C58.8524 252.393 59.3092 253.232 60.1084 253.468Z" fill="white"/>
<path d="M82.2927 263.681C82.4668 263.826 82.5855 264.027 82.6283 264.25L89.4517 299.715C89.6816 300.912 90.4443 301.938 91.5241 302.504C92.6035 303.069 93.8818 303.112 94.9964 302.62L105.199 298.111C105.442 298.005 105.718 298 105.964 298.099C106.21 298.199 106.405 298.393 106.505 298.639C106.637 298.961 106.891 299.217 107.211 299.352C107.532 299.486 107.893 299.487 108.215 299.356L113.186 297.316C113.856 297.042 114.176 296.277 113.902 295.608L104.622 272.964C104.482 272.621 104.546 272.229 104.789 271.949L105.855 270.718C106.4 270.087 106.331 269.135 105.702 268.589L95.3472 259.617C95.0434 259.355 94.6482 259.225 94.2485 259.254C93.8487 259.284 93.477 259.471 93.2152 259.775L90.91 262.442C90.5592 262.849 89.9468 262.899 89.5352 262.554L85.7432 259.394L81.9814 263.428L82.2927 263.681ZM94.8609 299.469C94.2262 299.748 93.4975 299.716 92.8896 299.382C92.2818 299.048 91.8639 298.45 91.7591 297.765L89.4614 282.585C89.2856 281.434 89.544 280.258 90.1871 279.287L92.747 281.31C93.7505 282.093 94.4993 283.157 94.8983 284.366L99.317 297.501L94.8609 299.469ZM93.2899 277.234L94.7628 276.969C97.0625 276.57 99.3111 277.902 100.065 280.111L104.778 294.114C104.941 294.596 104.709 295.122 104.244 295.327L101.126 296.704L96.763 283.748C96.2437 282.172 95.2674 280.787 93.9586 279.768L91.5921 277.893C92.1119 277.565 92.6904 277.341 93.2957 277.234H93.2899ZM87.9377 270.35L89.3288 276.242C89.4517 276.769 89.1245 277.296 88.5976 277.42C88.5233 277.438 88.4478 277.447 88.3715 277.446C87.9163 277.446 87.5207 277.133 87.4162 276.69L86.0247 270.799C85.9442 270.457 86.052 270.098 86.3075 269.858C86.563 269.617 86.9275 269.531 87.264 269.632C87.6 269.733 87.8567 270.006 87.9377 270.347V270.35ZM85.1882 264.469C85.7134 264.336 86.2479 264.652 86.3821 265.178L86.8734 267.101C87.0072 267.627 86.6896 268.161 86.1644 268.295C86.0847 268.316 86.0029 268.326 85.9207 268.326C85.4726 268.325 85.0812 268.021 84.9705 267.587L84.4813 265.667C84.4159 265.414 84.4541 265.146 84.587 264.921C84.7205 264.696 84.9373 264.534 85.1903 264.469H85.1882Z" fill="white"/>
<path d="M63.9126 277.94C65.2277 277.986 66.5031 277.483 67.434 276.552C68.3649 275.622 68.8674 274.346 68.8217 273.031C68.8217 270.759 65.6435 265.701 63.9126 263.702C62.1825 265.7 59.003 270.757 59.003 273.031C58.9573 274.346 59.4603 275.622 60.3907 276.552C61.3216 277.483 62.597 277.986 63.9126 277.94Z" fill="white"/>
<path d="M128.597 258.226V253.795H144.567V258.226H139.096V272H134.056V258.226H128.597ZM146.878 272V253.795H151.956V272H146.878ZM155.282 272V253.795H159.992L167.47 263.418V253.795H172.472V272H168.054L160.271 262.021V272H155.282ZM174.033 253.795H179.784L183.517 260.435L187.287 253.795H192.937L186.018 265.106V272H180.952V265.183L174.033 253.795ZM129.612 301V282.795H144.174V287.226H134.652V290.311H143.26V294.5H134.652V301H129.612ZM146.243 293.015V282.795H151.359V292.913C151.359 294.191 151.656 295.156 152.248 295.808C152.84 296.459 153.661 296.785 154.711 296.785C155.76 296.785 156.581 296.472 157.174 295.846C157.766 295.219 158.062 294.284 158.062 293.04V282.795H163.191V292.888C163.191 294.335 162.993 295.6 162.595 296.684C162.197 297.767 161.621 298.647 160.868 299.324C160.115 300.001 159.218 300.509 158.177 300.848C157.144 301.178 155.972 301.343 154.66 301.343C151.994 301.343 149.925 300.653 148.452 299.273C146.979 297.885 146.243 295.799 146.243 293.015ZM166.175 301V282.795H180.812V287.086H171.164V289.841H179.898V293.827H171.164V296.709H180.939V301H166.175ZM183.517 301V282.795H188.557V296.582H197.38V301H183.517Z" fill="white"/>
</svg>
