<svg width="578" height="484" viewBox="0 0 578 484" fill="none" xmlns="http://www.w3.org/2000/svg">
<path d="M30.3977 26V1.976H40.625C43.4393 1.976 45.5328 2.68528 46.9056 4.10384C47.9352 5.1792 48.45 6.48336 48.45 8.01632C48.45 10.6246 47.1802 12.4779 44.6405 13.5762C48.0725 14.6058 49.7885 16.562 49.7885 19.4449C49.7885 21.4812 48.9991 23.0828 47.4204 24.2497C45.8417 25.4166 43.7253 26 41.0712 26H30.3977ZM33.0746 23.5633H41.1398C42.9702 23.5633 44.4117 23.1858 45.4642 22.4307C46.5166 21.6528 47.0429 20.5774 47.0429 19.2046C47.0429 17.8776 46.4938 16.8594 45.3955 16.1502C44.3202 15.4409 42.7414 15.0862 40.6594 15.0862H33.0746V23.5633ZM33.0746 12.6838H40.1789C41.8491 12.6838 43.1876 12.3063 44.1943 11.5513C45.201 10.7962 45.7044 9.72088 45.7044 8.3252C45.7044 7.11256 45.2354 6.16304 44.2973 5.47664C43.3821 4.76736 42.0779 4.41272 40.3848 4.41272H33.0746V12.6838ZM54.9598 26V8.25656H57.6024V26H54.9598ZM54.7882 4.3784V1.4612H57.8084V4.3784H54.7882ZM61.127 30.4273V23.6662H63.0489C64.6276 20.7605 65.417 16.6535 65.417 11.3454V8.25656H78.0467V23.6662H80.7237L80.3118 30.4273H78.1154V26H63.7696L63.2891 30.4273H61.127ZM65.8631 23.6662H75.4041V10.5903H67.9566V13.0614C67.9566 17.523 67.2588 21.0579 65.8631 23.6662ZM84.3474 26V8.25656H86.99V18.4839L96.7026 8.25656H99.963L92.5499 15.9442L100.169 26H97.0458L90.7309 17.8662L86.99 21.71V26H84.3474ZM103.82 31.4912V8.25656H106.463V11.8258C108.247 9.19464 110.512 7.87904 113.258 7.87904C115.523 7.87904 117.502 8.7256 119.195 10.4187C120.888 12.089 121.735 14.3312 121.735 17.1454C121.735 19.9139 120.888 22.1447 119.195 23.8378C117.502 25.531 115.523 26.3775 113.258 26.3775C110.467 26.3775 108.201 25.1191 106.463 22.6023V31.4912H103.82ZM112.777 24.0094C114.562 24.0094 116.049 23.3917 117.239 22.1562C118.429 20.8978 119.024 19.2161 119.024 17.1111C119.024 15.0748 118.417 13.4274 117.205 12.169C115.992 10.8878 114.516 10.2471 112.777 10.2471C111.061 10.2471 109.563 10.8992 108.282 12.2034C107 13.5075 106.36 15.1549 106.36 17.1454C106.36 19.136 107 20.7834 108.282 22.0875C109.563 23.3688 111.061 24.0094 112.777 24.0094ZM126.611 26V8.25656H129.253V22.2934L139.789 8.25656H142.363V26H139.721V11.9631L129.15 26H126.611ZM148.262 26V8.25656H150.904V22.2934L161.441 8.25656H164.015V26H161.372V11.9631L150.801 26H148.262ZM159.244 4.55C158.375 5.32792 157.311 5.71688 156.052 5.71688C154.794 5.71688 153.719 5.32792 152.826 4.55C151.957 3.77208 151.419 2.76536 151.213 1.52984L153.032 1.15232C153.49 2.75392 154.496 3.55472 156.052 3.55472C157.608 3.55472 158.615 2.75392 159.072 1.15232L160.891 1.52984C160.686 2.76536 160.136 3.77208 159.244 4.55ZM174.203 26V10.5903H167.854V8.25656H183.229V10.5903H176.88V26H174.203ZM194.829 26.4118C192.335 26.4118 190.23 25.5538 188.514 23.8378C186.821 22.099 185.975 19.8682 185.975 17.1454C185.975 14.56 186.787 12.375 188.411 10.5903C190.036 8.7828 192.061 7.87904 194.486 7.87904C197.026 7.87904 199.039 8.77136 200.526 10.556C202.013 12.3406 202.757 14.5829 202.757 17.2827C202.757 17.6259 202.746 17.9348 202.723 18.2094H188.651C188.835 20.0169 189.509 21.4583 190.676 22.5337C191.866 23.5862 193.273 24.1124 194.898 24.1124C197.026 24.1124 198.89 23.2773 200.492 21.607L202.139 23.0828C200.149 25.3022 197.712 26.4118 194.829 26.4118ZM188.651 16.0815H200.08C199.92 14.3655 199.348 12.947 198.364 11.8258C197.403 10.6818 196.087 10.1098 194.417 10.1098C192.907 10.1098 191.614 10.6704 190.539 11.7915C189.464 12.9126 188.835 14.3426 188.651 16.0815ZM217.673 26V8.25656H220.315V15.9099H230.543V8.25656H233.185V26H230.543V18.2437H220.315V26H217.673ZM244.374 26.3775C242.567 26.3775 241.011 25.8856 239.707 24.9018C238.403 23.9179 237.751 22.5451 237.751 20.7834C237.751 18.9301 238.437 17.5001 239.81 16.4934C241.183 15.4866 243.024 14.9833 245.335 14.9833C247.166 14.9833 248.973 15.235 250.758 15.7383V15.1892C250.758 13.6334 250.3 12.4436 249.385 11.6199C248.47 10.7962 247.177 10.3844 245.507 10.3844C243.768 10.3844 241.972 10.8077 240.119 11.6542L239.329 9.49208C241.526 8.48536 243.676 7.982 245.781 7.982C248.298 7.982 250.209 8.63408 251.513 9.93824C252.748 11.1738 253.366 12.9126 253.366 15.1549V26H250.758V23.3574C249.179 25.3708 247.051 26.3775 244.374 26.3775ZM244.889 24.2497C246.536 24.2497 247.932 23.8035 249.076 22.9112C250.22 22.0189 250.792 20.8749 250.792 19.4792V17.8318C249.053 17.3285 247.326 17.0768 245.61 17.0768C243.985 17.0768 242.715 17.4086 241.8 18.0721C240.885 18.7127 240.427 19.5936 240.427 20.7147C240.427 21.7901 240.851 22.6481 241.697 23.2887C242.567 23.9294 243.631 24.2497 244.889 24.2497ZM258.964 26V8.25656H261.606V23.6662H270.255V8.25656H272.898V23.6662H281.546V8.25656H284.223V26H258.964ZM306.051 26.4118C303.328 26.4118 300.88 25.531 298.707 23.7692L300.045 21.813C301.853 23.3459 303.832 24.1124 305.982 24.1124C307.195 24.1124 308.225 23.8378 309.071 23.2887C309.941 22.7167 310.375 21.9388 310.375 20.955C310.375 20.0398 309.986 19.3305 309.209 18.8271C308.431 18.3009 307.332 18.0378 305.914 18.0378H303.546V15.8756H305.948C307.115 15.8756 308.065 15.601 308.797 15.0519C309.529 14.4799 309.895 13.7363 309.895 12.8211C309.895 12.0203 309.529 11.3797 308.797 10.8992C308.087 10.4187 307.172 10.1785 306.051 10.1785C303.946 10.1785 302.15 10.7734 300.663 11.9631L299.359 10.1098C301.281 8.62264 303.569 7.87904 306.223 7.87904C308.19 7.87904 309.746 8.3252 310.89 9.21752C312.057 10.087 312.641 11.2195 312.641 12.6152C312.641 14.56 311.691 15.9214 309.792 16.6993C311.988 17.4772 313.087 18.9301 313.087 21.0579C313.087 22.5451 312.446 23.815 311.165 24.8674C309.884 25.897 308.179 26.4118 306.051 26.4118ZM323.27 26.3775C321.463 26.3775 319.907 25.8856 318.603 24.9018C317.298 23.9179 316.646 22.5451 316.646 20.7834C316.646 18.9301 317.333 17.5001 318.706 16.4934C320.078 15.4866 321.92 14.9833 324.231 14.9833C326.061 14.9833 327.869 15.235 329.654 15.7383V15.1892C329.654 13.6334 329.196 12.4436 328.281 11.6199C327.366 10.7962 326.073 10.3844 324.403 10.3844C322.664 10.3844 320.868 10.8077 319.014 11.6542L318.225 9.49208C320.422 8.48536 322.572 7.982 324.677 7.982C327.194 7.982 329.104 8.63408 330.409 9.93824C331.644 11.1738 332.262 12.9126 332.262 15.1549V26H329.654V23.3574C328.075 25.3708 325.947 26.3775 323.27 26.3775ZM323.785 24.2497C325.432 24.2497 326.828 23.8035 327.972 22.9112C329.116 22.0189 329.688 20.8749 329.688 19.4792V17.8318C327.949 17.3285 326.222 17.0768 324.506 17.0768C322.881 17.0768 321.611 17.4086 320.696 18.0721C319.781 18.7127 319.323 19.5936 319.323 20.7147C319.323 21.7901 319.747 22.6481 320.593 23.2887C321.463 23.9294 322.526 24.2497 323.785 24.2497ZM345.856 26.4118C343.294 26.4118 341.131 25.5081 339.37 23.7006C337.631 21.8702 336.761 19.6851 336.761 17.1454C336.761 14.6058 337.631 12.4322 339.37 10.6246C341.131 8.79424 343.294 7.87904 345.856 7.87904C348.602 7.87904 350.97 8.93152 352.96 11.0365L351.279 12.8211C349.631 11.0822 347.812 10.2128 345.822 10.2128C344.037 10.2128 342.527 10.8878 341.292 12.2377C340.079 13.5647 339.473 15.2006 339.473 17.1454C339.473 19.0674 340.09 20.7033 341.326 22.0532C342.584 23.3802 344.14 24.0438 345.993 24.0438C347.892 24.0438 349.677 23.1514 351.347 21.3668L353.098 22.9798C351.038 25.2678 348.625 26.4118 345.856 26.4118ZM361.756 26V10.5903H355.407V8.25656H370.782V10.5903H364.433V26H361.756ZM389.349 23.7006C387.565 25.5081 385.357 26.4118 382.726 26.4118C380.095 26.4118 377.898 25.5081 376.136 23.7006C374.397 21.893 373.528 19.708 373.528 17.1454C373.528 14.6058 374.409 12.4322 376.171 10.6246C377.955 8.79424 380.163 7.87904 382.794 7.87904C385.426 7.87904 387.622 8.7828 389.384 10.5903C391.146 12.3978 392.026 14.5829 392.026 17.1454C392.026 19.6851 391.134 21.8702 389.349 23.7006ZM382.794 24.0438C384.693 24.0438 386.249 23.3802 387.462 22.0532C388.697 20.7262 389.315 19.0902 389.315 17.1454C389.315 15.2235 388.675 13.5876 387.393 12.2377C386.135 10.8878 384.579 10.2128 382.726 10.2128C380.827 10.2128 379.271 10.8878 378.058 12.2377C376.846 13.5647 376.239 15.2006 376.239 17.1454C376.239 19.0674 376.868 20.7033 378.127 22.0532C379.385 23.3802 380.941 24.0438 382.794 24.0438ZM404.81 26.4118C402.248 26.4118 400.085 25.5081 398.324 23.7006C396.585 21.8702 395.715 19.6851 395.715 17.1454C395.715 14.6058 396.585 12.4322 398.324 10.6246C400.085 8.79424 402.248 7.87904 404.81 7.87904C407.556 7.87904 409.924 8.93152 411.914 11.0365L410.233 12.8211C408.585 11.0822 406.766 10.2128 404.776 10.2128C402.991 10.2128 401.481 10.8878 400.246 12.2377C399.033 13.5647 398.427 15.2006 398.427 17.1454C398.427 19.0674 399.044 20.7033 400.28 22.0532C401.538 23.3802 403.094 24.0438 404.947 24.0438C406.846 24.0438 408.631 23.1514 410.301 21.3668L412.052 22.9798C409.992 25.2678 407.579 26.4118 404.81 26.4118ZM419.166 31.5942C417.884 31.5942 416.626 31.2967 415.391 30.7018L416.283 28.6083C417.129 29.043 418.056 29.2604 419.063 29.2604C419.864 29.2604 420.539 29.0087 421.088 28.5054C421.637 28.0249 422.174 27.1669 422.701 25.9314L414.636 8.25656H417.553L424.005 23.0485L429.702 8.25656H432.516L425.069 26.5834C424.314 28.391 423.479 29.6722 422.563 30.4273C421.648 31.2052 420.516 31.5942 419.166 31.5942ZM436.697 26V8.25656H439.34V15.9099H449.567V8.25656H452.21V26H449.567V18.2437H439.34V26H436.697ZM472.837 23.7006C471.052 25.5081 468.844 26.4118 466.213 26.4118C463.582 26.4118 461.385 25.5081 459.624 23.7006C457.885 21.893 457.015 19.708 457.015 17.1454C457.015 14.6058 457.896 12.4322 459.658 10.6246C461.443 8.79424 463.651 7.87904 466.282 7.87904C468.913 7.87904 471.109 8.7828 472.871 10.5903C474.633 12.3978 475.514 14.5829 475.514 17.1454C475.514 19.6851 474.622 21.8702 472.837 23.7006ZM466.282 24.0438C468.181 24.0438 469.737 23.3802 470.949 22.0532C472.185 20.7262 472.803 19.0902 472.803 17.1454C472.803 15.2235 472.162 13.5876 470.881 12.2377C469.622 10.8878 468.066 10.2128 466.213 10.2128C464.314 10.2128 462.758 10.8878 461.546 12.2377C460.333 13.5647 459.727 15.2006 459.727 17.1454C459.727 19.0674 460.356 20.7033 461.614 22.0532C462.873 23.3802 464.429 24.0438 466.282 24.0438ZM480.301 26V8.25656H482.944V18.4839L492.656 8.25656H495.917L488.503 15.9442L496.122 26H492.999L486.684 17.8662L482.944 21.71V26H480.301Z" fill="black"/>
<path d="M120.372 127.774C118.061 130.199 115.121 131.412 111.552 131.412C107.982 131.412 105.054 130.199 102.766 127.774C100.478 125.349 99.3338 122.42 99.3338 118.988C99.3338 115.579 100.489 112.662 102.8 110.236C105.111 107.788 108.051 106.564 111.62 106.564C115.19 106.564 118.118 107.777 120.406 110.202C122.694 112.627 123.838 115.556 123.838 118.988C123.838 122.397 122.683 125.326 120.372 127.774ZM104.825 126.024C106.632 127.946 108.898 128.906 111.62 128.906C114.343 128.906 116.585 127.957 118.347 126.058C120.132 124.136 121.024 121.779 121.024 118.988C121.024 116.22 120.12 113.874 118.313 111.952C116.528 110.03 114.274 109.07 111.552 109.07C108.829 109.07 106.575 110.03 104.791 111.952C103.029 113.851 102.148 116.197 102.148 118.988C102.148 121.756 103.04 124.102 104.825 126.024ZM137.45 131.412C134.727 131.412 132.542 130.52 130.895 128.735C129.27 126.927 128.458 124.491 128.458 121.425C128.458 120.304 128.481 119.354 128.527 118.576C128.572 117.775 128.664 116.894 128.801 115.934C128.939 114.973 129.156 114.149 129.453 113.462C129.751 112.776 130.128 112.101 130.586 111.438C131.066 110.774 131.684 110.214 132.439 109.756C133.194 109.298 134.075 108.955 135.082 108.726L144.966 106.393L145.481 108.623L135.871 110.991C134.087 111.449 132.805 112.181 132.027 113.188C131.272 114.172 130.826 115.545 130.689 117.306C132.199 114.744 134.647 113.462 138.033 113.462C140.367 113.462 142.369 114.332 144.039 116.071C145.71 117.787 146.545 119.857 146.545 122.283C146.545 124.8 145.675 126.95 143.936 128.735C142.197 130.52 140.035 131.412 137.45 131.412ZM137.519 129.044C139.326 129.044 140.825 128.403 142.014 127.122C143.204 125.818 143.799 124.228 143.799 122.351C143.799 120.498 143.181 118.919 141.946 117.615C140.733 116.311 139.235 115.659 137.45 115.659C135.642 115.659 134.144 116.311 132.954 117.615C131.764 118.896 131.169 120.475 131.169 122.351C131.169 124.205 131.776 125.783 132.988 127.088C134.224 128.392 135.734 129.044 137.519 129.044ZM159.087 131.412C156.593 131.412 154.488 130.554 152.772 128.838C151.079 127.099 150.233 124.868 150.233 122.145C150.233 119.56 151.045 117.375 152.669 115.59C154.294 113.783 156.319 112.879 158.744 112.879C161.284 112.879 163.297 113.771 164.784 115.556C166.272 117.341 167.015 119.583 167.015 122.283C167.015 122.626 167.004 122.935 166.981 123.209H152.91C153.093 125.017 153.768 126.458 154.935 127.534C156.124 128.586 157.531 129.112 159.156 129.112C161.284 129.112 163.148 128.277 164.75 126.607L166.397 128.083C164.407 130.302 161.97 131.412 159.087 131.412ZM152.91 121.082H164.338C164.178 119.366 163.606 117.947 162.622 116.826C161.661 115.682 160.346 115.11 158.675 115.11C157.165 115.11 155.873 115.67 154.797 116.792C153.722 117.913 153.093 119.343 152.91 121.082ZM171.641 136.491V113.257H174.284V116.826C176.069 114.195 178.334 112.879 181.079 112.879C183.345 112.879 185.324 113.726 187.017 115.419C188.71 117.089 189.556 119.331 189.556 122.145C189.556 124.914 188.71 127.145 187.017 128.838C185.324 130.531 183.345 131.378 181.079 131.378C178.288 131.378 176.023 130.119 174.284 127.602V136.491H171.641ZM180.599 129.009C182.384 129.009 183.871 128.392 185.061 127.156C186.25 125.898 186.845 124.216 186.845 122.111C186.845 120.075 186.239 118.427 185.026 117.169C183.814 115.888 182.338 115.247 180.599 115.247C178.883 115.247 177.384 115.899 176.103 117.203C174.822 118.508 174.181 120.155 174.181 122.145C174.181 124.136 174.822 125.783 176.103 127.088C177.384 128.369 178.883 129.009 180.599 129.009ZM194.672 131V113.257H197.315V131H194.672ZM194.501 109.378V106.461H197.521V109.378H194.501ZM207.738 131V115.59H201.389V113.257H216.764V115.59H210.415V131H207.738ZM220.608 131V113.257H223.25V119.915H227.987C230.046 119.915 231.727 120.361 233.032 121.253C234.336 122.123 234.988 123.45 234.988 125.234C234.988 126.996 234.382 128.403 233.169 129.456C231.956 130.485 230.332 131 228.295 131H220.608ZM223.25 128.666H228.055C229.405 128.666 230.446 128.38 231.178 127.808C231.933 127.236 232.311 126.401 232.311 125.303C232.311 124.296 231.922 123.53 231.144 123.003C230.389 122.454 229.325 122.18 227.952 122.18H223.25V128.666ZM253.654 131V115.59H247.305V113.257H262.68V115.59H256.331V131H253.654ZM266.524 131V113.257H269.167V127.293L279.703 113.257H282.277V131H279.634V116.963L269.064 131H266.524ZM288.175 131V113.257H303.551V131H300.908V115.59H290.818V131H288.175ZM319.747 131V113.257H335.122V131H332.48V115.59H322.39V131H319.747ZM346.315 131.378C344.507 131.378 342.951 130.886 341.647 129.902C340.343 128.918 339.691 127.545 339.691 125.783C339.691 123.93 340.377 122.5 341.75 121.493C343.123 120.487 344.965 119.983 347.276 119.983C349.106 119.983 350.914 120.235 352.698 120.738V120.189C352.698 118.633 352.241 117.444 351.325 116.62C350.41 115.796 349.117 115.384 347.447 115.384C345.708 115.384 343.912 115.808 342.059 116.654L341.27 114.492C343.466 113.485 345.617 112.982 347.722 112.982C350.239 112.982 352.149 113.634 353.453 114.938C354.689 116.174 355.307 117.913 355.307 120.155V131H352.698V128.357C351.119 130.371 348.992 131.378 346.315 131.378ZM346.829 129.25C348.477 129.25 349.873 128.804 351.017 127.911C352.161 127.019 352.733 125.875 352.733 124.479V122.832C350.994 122.328 349.266 122.077 347.55 122.077C345.926 122.077 344.656 122.409 343.741 123.072C342.825 123.713 342.368 124.594 342.368 125.715C342.368 126.79 342.791 127.648 343.638 128.289C344.507 128.929 345.571 129.25 346.829 129.25ZM360.046 131.275C359.36 131.275 358.651 131.183 357.918 131L358.227 128.735C358.753 128.895 359.177 128.975 359.497 128.975C360 128.975 360.412 128.918 360.733 128.804C361.053 128.666 361.396 128.334 361.762 127.808C362.151 127.259 362.449 126.493 362.655 125.509C362.86 124.525 363.032 123.129 363.169 121.322C363.329 119.514 363.41 117.318 363.41 114.732V113.257H375.971V131H373.328V115.59H365.915V116.002C365.915 118.702 365.812 121.001 365.606 122.9C365.4 124.8 365.137 126.287 364.817 127.362C364.519 128.437 364.096 129.273 363.547 129.867C362.998 130.462 362.46 130.84 361.934 131C361.43 131.183 360.801 131.275 360.046 131.275ZM381.885 131V113.257H384.528V127.293L395.064 113.257H397.638V131H394.995V116.963L384.425 131H381.885ZM403.536 131V113.257H412.116C413.878 113.257 415.285 113.657 416.337 114.458C417.39 115.259 417.916 116.334 417.916 117.684C417.916 119.583 416.932 120.944 414.965 121.768C417.573 122.477 418.877 123.942 418.877 126.161C418.877 127.648 418.294 128.826 417.127 129.696C415.96 130.565 414.393 131 412.425 131H403.536ZM406.179 128.735H412.082C413.34 128.735 414.335 128.472 415.068 127.946C415.8 127.419 416.166 126.687 416.166 125.749C416.166 124.88 415.777 124.205 414.999 123.724C414.244 123.244 413.157 123.003 411.739 123.003H406.179V128.735ZM406.179 120.876H411.636C412.734 120.876 413.603 120.635 414.244 120.155C414.907 119.652 415.239 118.942 415.239 118.027C415.239 117.272 414.93 116.666 414.313 116.208C413.695 115.75 412.825 115.522 411.704 115.522H406.179V120.876ZM428.931 131.378C427.123 131.378 425.567 130.886 424.263 129.902C422.959 128.918 422.307 127.545 422.307 125.783C422.307 123.93 422.993 122.5 424.366 121.493C425.739 120.487 427.581 119.983 429.892 119.983C431.722 119.983 433.53 120.235 435.314 120.738V120.189C435.314 118.633 434.857 117.444 433.941 116.62C433.026 115.796 431.734 115.384 430.063 115.384C428.324 115.384 426.528 115.808 424.675 116.654L423.886 114.492C426.082 113.485 428.233 112.982 430.338 112.982C432.855 112.982 434.765 113.634 436.069 114.938C437.305 116.174 437.923 117.913 437.923 120.155V131H435.314V128.357C433.736 130.371 431.608 131.378 428.931 131.378ZM429.446 129.25C431.093 129.25 432.489 128.804 433.633 127.911C434.777 127.019 435.349 125.875 435.349 124.479V122.832C433.61 122.328 431.882 122.077 430.166 122.077C428.542 122.077 427.272 122.409 426.357 123.072C425.442 123.713 424.984 124.594 424.984 125.715C424.984 126.79 425.407 127.648 426.254 128.289C427.123 128.929 428.187 129.25 429.446 129.25Z" fill="black"/>
<path d="M129.398 236V211.976H139.625C142.439 211.976 144.533 212.685 145.906 214.104C146.935 215.179 147.45 216.483 147.45 218.016C147.45 220.625 146.18 222.478 143.64 223.576C147.072 224.606 148.788 226.562 148.788 229.445C148.788 231.481 147.999 233.083 146.42 234.25C144.842 235.417 142.725 236 140.071 236H129.398ZM132.075 233.563H140.14C141.97 233.563 143.412 233.186 144.464 232.431C145.517 231.653 146.043 230.577 146.043 229.205C146.043 227.878 145.494 226.859 144.396 226.15C143.32 225.441 141.741 225.086 139.659 225.086H132.075V233.563ZM132.075 222.684H139.179C140.849 222.684 142.188 222.306 143.194 221.551C144.201 220.796 144.704 219.721 144.704 218.325C144.704 217.113 144.235 216.163 143.297 215.477C142.382 214.767 141.078 214.413 139.385 214.413H132.075V222.684ZM153.72 236V218.257H156.362V228.484L166.075 218.257H169.335L161.922 225.944L169.541 236H166.418L160.103 227.866L156.362 231.71V236H153.72ZM178.477 236.378C176.67 236.378 175.114 235.886 173.81 234.902C172.506 233.918 171.854 232.545 171.854 230.783C171.854 228.93 172.54 227.5 173.913 226.493C175.286 225.487 177.128 224.983 179.438 224.983C181.269 224.983 183.076 225.235 184.861 225.738V225.189C184.861 223.633 184.403 222.444 183.488 221.62C182.573 220.796 181.28 220.384 179.61 220.384C177.871 220.384 176.075 220.808 174.222 221.654L173.432 219.492C175.629 218.485 177.78 217.982 179.885 217.982C182.401 217.982 184.312 218.634 185.616 219.938C186.852 221.174 187.469 222.913 187.469 225.155V236H184.861V233.357C183.282 235.371 181.154 236.378 178.477 236.378ZM178.992 234.25C180.64 234.25 182.035 233.804 183.179 232.911C184.323 232.019 184.895 230.875 184.895 229.479V227.832C183.156 227.328 181.429 227.077 179.713 227.077C178.088 227.077 176.819 227.409 175.903 228.072C174.988 228.713 174.531 229.594 174.531 230.715C174.531 231.79 174.954 232.648 175.8 233.289C176.67 233.929 177.734 234.25 178.992 234.25ZM190.802 236L198.078 225.841L191.179 218.257H194.371L203.397 228.553V218.257H206.04V228.553L215.066 218.257H218.258L211.359 225.841L218.635 236H215.547L209.643 227.729L206.04 231.676V236H203.397V231.676L199.794 227.729L193.891 236H190.802ZM222.499 236V218.257H225.142V236H222.499ZM222.328 214.378V211.461H225.348V214.378H222.328ZM235.565 236V220.59H229.216V218.257H244.591V220.59H238.242V236H235.565ZM248.435 236V218.257H251.077V224.915H255.814C257.873 224.915 259.554 225.361 260.859 226.253C262.163 227.123 262.815 228.45 262.815 230.234C262.815 231.996 262.208 233.403 260.996 234.456C259.783 235.485 258.159 236 256.122 236H248.435ZM251.077 233.666H255.882C257.232 233.666 258.273 233.38 259.005 232.808C259.76 232.236 260.138 231.401 260.138 230.303C260.138 229.296 259.749 228.53 258.971 228.003C258.216 227.454 257.152 227.18 255.779 227.18H251.077V233.666ZM276.333 236.275C275.647 236.275 274.937 236.183 274.205 236L274.514 233.735C275.04 233.895 275.464 233.975 275.784 233.975C276.287 233.975 276.699 233.918 277.02 233.804C277.34 233.666 277.683 233.334 278.049 232.808C278.438 232.259 278.736 231.493 278.941 230.509C279.147 229.525 279.319 228.129 279.456 226.322C279.616 224.514 279.696 222.318 279.696 219.732V218.257H292.258V236H289.615V220.59H282.202V221.002C282.202 223.702 282.099 226.001 281.893 227.9C281.687 229.8 281.424 231.287 281.104 232.362C280.806 233.437 280.383 234.273 279.834 234.867C279.285 235.462 278.747 235.84 278.221 236C277.717 236.183 277.088 236.275 276.333 236.275ZM298.412 236V218.257H301.055V236H298.412ZM298.241 214.378V211.461H301.261V214.378H298.241ZM311.478 236V220.59H305.128V218.257H320.504V220.59H314.155V236H311.478ZM324.348 241.491V218.257H326.99V221.826C328.775 219.195 331.04 217.879 333.786 217.879C336.051 217.879 338.03 218.726 339.723 220.419C341.416 222.089 342.263 224.331 342.263 227.145C342.263 229.914 341.416 232.145 339.723 233.838C338.03 235.531 336.051 236.378 333.786 236.378C330.994 236.378 328.729 235.119 326.99 232.602V241.491H324.348ZM333.305 234.009C335.09 234.009 336.577 233.392 337.767 232.156C338.956 230.898 339.551 229.216 339.551 227.111C339.551 225.075 338.945 223.427 337.732 222.169C336.52 220.888 335.044 220.247 333.305 220.247C331.589 220.247 330.09 220.899 328.809 222.203C327.528 223.508 326.887 225.155 326.887 227.145C326.887 229.136 327.528 230.783 328.809 232.088C330.09 233.369 331.589 234.009 333.305 234.009ZM352.424 236.378C350.616 236.378 349.06 235.886 347.756 234.902C346.452 233.918 345.8 232.545 345.8 230.783C345.8 228.93 346.486 227.5 347.859 226.493C349.232 225.487 351.074 224.983 353.384 224.983C355.215 224.983 357.022 225.235 358.807 225.738V225.189C358.807 223.633 358.349 222.444 357.434 221.62C356.519 220.796 355.226 220.384 353.556 220.384C351.817 220.384 350.021 220.808 348.168 221.654L347.378 219.492C349.575 218.485 351.726 217.982 353.831 217.982C356.347 217.982 358.258 218.634 359.562 219.938C360.798 221.174 361.415 222.913 361.415 225.155V236H358.807V233.357C357.228 235.371 355.1 236.378 352.424 236.378ZM352.938 234.25C354.586 234.25 355.981 233.804 357.125 232.911C358.269 232.019 358.841 230.875 358.841 229.479V227.832C357.102 227.328 355.375 227.077 353.659 227.077C352.035 227.077 350.765 227.409 349.85 228.072C348.934 228.713 348.477 229.594 348.477 230.715C348.477 231.79 348.9 232.648 349.747 233.289C350.616 233.929 351.68 234.25 352.938 234.25ZM364.748 236L372.024 225.841L365.125 218.257H368.317L377.343 228.553V218.257H379.986V228.553L389.012 218.257H392.204L385.306 225.841L392.581 236H389.493L383.59 227.729L379.986 231.676V236H377.343V231.676L373.74 227.729L367.837 236H364.748Z" fill="black"/>
<path d="M141.372 337.774C139.061 340.199 136.121 341.412 132.552 341.412C128.982 341.412 126.054 340.199 123.766 337.774C121.478 335.349 120.334 332.42 120.334 328.988C120.334 325.579 121.489 322.662 123.8 320.236C126.111 317.788 129.051 316.564 132.62 316.564C136.19 316.564 139.118 317.777 141.406 320.202C143.694 322.627 144.838 325.556 144.838 328.988C144.838 332.397 143.683 335.326 141.372 337.774ZM125.825 336.024C127.632 337.946 129.898 338.906 132.62 338.906C135.343 338.906 137.585 337.957 139.347 336.058C141.132 334.136 142.024 331.779 142.024 328.988C142.024 326.22 141.12 323.874 139.313 321.952C137.528 320.03 135.274 319.07 132.552 319.07C129.829 319.07 127.575 320.03 125.791 321.952C124.029 323.851 123.148 326.197 123.148 328.988C123.148 331.756 124.04 334.102 125.825 336.024ZM150.11 341V323.257H165.485V341H162.843V325.59H152.753V341H150.11ZM170.535 341.275C169.848 341.275 169.139 341.183 168.407 341L168.716 338.735C169.242 338.895 169.665 338.975 169.985 338.975C170.489 338.975 170.901 338.918 171.221 338.804C171.541 338.666 171.884 338.334 172.251 337.808C172.639 337.259 172.937 336.493 173.143 335.509C173.349 334.525 173.52 333.129 173.658 331.322C173.818 329.514 173.898 327.318 173.898 324.732V323.257H186.459V341H183.816V325.59H176.403V326.002C176.403 328.702 176.3 331.001 176.094 332.9C175.888 334.8 175.625 336.287 175.305 337.362C175.008 338.437 174.584 339.273 174.035 339.867C173.486 340.462 172.948 340.84 172.422 341C171.919 341.183 171.29 341.275 170.535 341.275ZM197.659 341.378C195.851 341.378 194.295 340.886 192.991 339.902C191.687 338.918 191.035 337.545 191.035 335.783C191.035 333.93 191.721 332.5 193.094 331.493C194.467 330.487 196.309 329.983 198.62 329.983C200.45 329.983 202.257 330.235 204.042 330.738V330.189C204.042 328.633 203.585 327.444 202.669 326.62C201.754 325.796 200.461 325.384 198.791 325.384C197.052 325.384 195.256 325.808 193.403 326.654L192.614 324.492C194.81 323.485 196.961 322.982 199.066 322.982C201.583 322.982 203.493 323.634 204.797 324.938C206.033 326.174 206.65 327.913 206.65 330.155V341H204.042V338.357C202.463 340.371 200.336 341.378 197.659 341.378ZM198.173 339.25C199.821 339.25 201.216 338.804 202.36 337.911C203.504 337.019 204.076 335.875 204.076 334.479V332.832C202.338 332.328 200.61 332.077 198.894 332.077C197.27 332.077 196 332.409 195.085 333.072C194.169 333.713 193.712 334.594 193.712 335.715C193.712 336.79 194.135 337.648 194.982 338.289C195.851 338.929 196.915 339.25 198.173 339.25ZM216.538 341V325.59H210.189V323.257H225.564V325.59H219.215V341H216.538ZM229.648 341V323.257H232.291V341H229.648ZM229.477 319.378V316.461H232.497V319.378H229.477ZM242.714 341V325.59H236.365V323.257H251.74V325.59H245.391V341H242.714ZM255.584 341V323.257H258.226V329.915H262.963C265.022 329.915 266.703 330.361 268.008 331.253C269.312 332.123 269.964 333.45 269.964 335.234C269.964 336.996 269.358 338.403 268.145 339.456C266.932 340.485 265.308 341 263.271 341H255.584ZM258.226 338.666H263.031C264.381 338.666 265.422 338.38 266.154 337.808C266.909 337.236 267.287 336.401 267.287 335.303C267.287 334.296 266.898 333.53 266.12 333.003C265.365 332.454 264.301 332.18 262.928 332.18H258.226V338.666ZM299.063 338.701C297.279 340.508 295.071 341.412 292.44 341.412C289.809 341.412 287.612 340.508 285.85 338.701C284.111 336.893 283.242 334.708 283.242 332.145C283.242 329.606 284.123 327.432 285.885 325.625C287.669 323.794 289.877 322.879 292.508 322.879C295.14 322.879 297.336 323.783 299.098 325.59C300.86 327.398 301.74 329.583 301.74 332.145C301.74 334.685 300.848 336.87 299.063 338.701ZM292.508 339.044C294.407 339.044 295.963 338.38 297.176 337.053C298.411 335.726 299.029 334.09 299.029 332.145C299.029 330.224 298.389 328.588 297.107 327.238C295.849 325.888 294.293 325.213 292.44 325.213C290.541 325.213 288.985 325.888 287.772 327.238C286.56 328.565 285.953 330.201 285.953 332.145C285.953 334.067 286.582 335.703 287.841 337.053C289.099 338.38 290.655 339.044 292.508 339.044ZM306.528 341V323.257H309.17V330.91H319.398V323.257H322.04V341H319.398V333.244H309.17V341H306.528ZM327.086 341.275C326.4 341.275 325.69 341.183 324.958 341L325.267 338.735C325.793 338.895 326.217 338.975 326.537 338.975C327.04 338.975 327.452 338.918 327.772 338.804C328.093 338.666 328.436 338.334 328.802 337.808C329.191 337.259 329.488 336.493 329.694 335.509C329.9 334.525 330.072 333.129 330.209 331.322C330.369 329.514 330.449 327.318 330.449 324.732V323.257H343.01V341H340.368V325.59H332.955V326.002C332.955 328.702 332.852 331.001 332.646 332.9C332.44 334.8 332.177 336.287 331.856 337.362C331.559 338.437 331.136 339.273 330.587 339.867C330.038 340.462 329.5 340.84 328.974 341C328.47 341.183 327.841 341.275 327.086 341.275ZM354.21 341.378C352.403 341.378 350.847 340.886 349.543 339.902C348.238 338.918 347.586 337.545 347.586 335.783C347.586 333.93 348.273 332.5 349.646 331.493C351.018 330.487 352.86 329.983 355.171 329.983C357.001 329.983 358.809 330.235 360.594 330.738V330.189C360.594 328.633 360.136 327.444 359.221 326.62C358.306 325.796 357.013 325.384 355.343 325.384C353.604 325.384 351.808 325.808 349.954 326.654L349.165 324.492C351.362 323.485 353.512 322.982 355.617 322.982C358.134 322.982 360.044 323.634 361.349 324.938C362.584 326.174 363.202 327.913 363.202 330.155V341H360.594V338.357C359.015 340.371 356.887 341.378 354.21 341.378ZM354.725 339.25C356.372 339.25 357.768 338.804 358.912 337.911C360.056 337.019 360.628 335.875 360.628 334.479V332.832C358.889 332.328 357.162 332.077 355.446 332.077C353.821 332.077 352.551 332.409 351.636 333.072C350.721 333.713 350.263 334.594 350.263 335.715C350.263 336.79 350.687 337.648 351.533 338.289C352.403 338.929 353.466 339.25 354.725 339.25ZM368.8 341V323.257H371.442V337.293L381.978 323.257H384.552V341H381.91V326.963L371.339 341H368.8ZM379.782 319.55C378.913 320.328 377.849 320.717 376.59 320.717C375.332 320.717 374.256 320.328 373.364 319.55C372.495 318.772 371.957 317.765 371.751 316.53L373.57 316.152C374.028 317.754 375.034 318.555 376.59 318.555C378.146 318.555 379.153 317.754 379.61 316.152L381.429 316.53C381.223 317.765 380.674 318.772 379.782 319.55ZM390.451 341V323.257H393.093V330.91H403.321V323.257H405.963V341H403.321V333.244H393.093V341H390.451Z" fill="black"/>
<path d="M90.5497 446V421.976H100.777C103.591 421.976 105.685 422.685 107.058 424.104C108.087 425.179 108.602 426.483 108.602 428.016C108.602 430.625 107.332 432.478 104.793 433.576C108.225 434.606 109.941 436.562 109.941 439.445C109.941 441.481 109.151 443.083 107.572 444.25C105.994 445.417 103.877 446 101.223 446H90.5497ZM93.2267 443.563H101.292C103.122 443.563 104.564 443.186 105.616 442.431C106.669 441.653 107.195 440.577 107.195 439.205C107.195 437.878 106.646 436.859 105.548 436.15C104.472 435.441 102.894 435.086 100.811 435.086H93.2267V443.563ZM93.2267 432.684H100.331C102.001 432.684 103.34 432.306 104.346 431.551C105.353 430.796 105.856 429.721 105.856 428.325C105.856 427.113 105.387 426.163 104.449 425.477C103.534 424.767 102.23 424.413 100.537 424.413H93.2267V432.684ZM115.112 446V428.257H117.755V446H115.112ZM114.94 424.378V421.461H117.96V424.378H114.94ZM121.279 450.427V443.666H123.201C124.78 440.76 125.569 436.654 125.569 431.345V428.257H138.199V443.666H140.876L140.464 450.427H138.267V446H123.922L123.441 450.427H121.279ZM126.015 443.666H135.556V430.59H128.109V433.061C128.109 437.523 127.411 441.058 126.015 443.666ZM152.496 446.412C149.933 446.412 147.771 445.508 146.01 443.701C144.271 441.87 143.401 439.685 143.401 437.145C143.401 434.606 144.271 432.432 146.01 430.625C147.771 428.794 149.933 427.879 152.496 427.879C155.242 427.879 157.61 428.932 159.6 431.036L157.919 432.821C156.271 431.082 154.452 430.213 152.462 430.213C150.677 430.213 149.167 430.888 147.931 432.238C146.719 433.565 146.112 435.201 146.112 437.145C146.112 439.067 146.73 440.703 147.966 442.053C149.224 443.38 150.78 444.044 152.633 444.044C154.532 444.044 156.317 443.151 157.987 441.367L159.738 442.98C157.678 445.268 155.264 446.412 152.496 446.412ZM164.106 446V428.257H166.749V438.484L176.461 428.257H179.722L172.309 435.944L179.928 446H176.804L170.49 437.866L166.749 441.71V446H164.106ZM188.864 446.378C187.056 446.378 185.501 445.886 184.196 444.902C182.892 443.918 182.24 442.545 182.24 440.783C182.24 438.93 182.927 437.5 184.299 436.493C185.672 435.487 187.514 434.983 189.825 434.983C191.655 434.983 193.463 435.235 195.247 435.738V435.189C195.247 433.633 194.79 432.444 193.875 431.62C192.959 430.796 191.667 430.384 189.997 430.384C188.258 430.384 186.462 430.808 184.608 431.654L183.819 429.492C186.015 428.485 188.166 427.982 190.271 427.982C192.788 427.982 194.698 428.634 196.003 429.938C197.238 431.174 197.856 432.913 197.856 435.155V446H195.247V443.357C193.669 445.371 191.541 446.378 188.864 446.378ZM189.379 444.25C191.026 444.25 192.422 443.804 193.566 442.911C194.71 442.019 195.282 440.875 195.282 439.479V437.832C193.543 437.328 191.815 437.077 190.099 437.077C188.475 437.077 187.205 437.409 186.29 438.072C185.375 438.713 184.917 439.594 184.917 440.715C184.917 441.79 185.34 442.648 186.187 443.289C187.056 443.929 188.12 444.25 189.379 444.25ZM203.453 446V428.257H206.096V435.91H216.323V428.257H218.966V446H216.323V438.244H206.096V446H203.453ZM227.616 451.594C226.334 451.594 225.076 451.297 223.84 450.702L224.733 448.608C225.579 449.043 226.506 449.26 227.513 449.26C228.313 449.26 228.988 449.009 229.537 448.505C230.087 448.025 230.624 447.167 231.15 445.931L223.085 428.257H226.002L232.455 443.048L238.152 428.257H240.966L233.519 446.583C232.764 448.391 231.928 449.672 231.013 450.427C230.098 451.205 228.965 451.594 227.616 451.594ZM245.147 446V428.257H247.79V442.293L258.326 428.257H260.9V446H258.257V431.963L247.687 446H245.147ZM256.129 424.55C255.26 425.328 254.196 425.717 252.938 425.717C251.679 425.717 250.604 425.328 249.711 424.55C248.842 423.772 248.304 422.765 248.098 421.53L249.917 421.152C250.375 422.754 251.382 423.555 252.938 423.555C254.493 423.555 255.5 422.754 255.958 421.152L257.777 421.53C257.571 422.765 257.022 423.772 256.129 424.55ZM271.088 446V430.59H264.739V428.257H280.114V430.59H273.765V446H271.088ZM291.714 446.412C289.22 446.412 287.115 445.554 285.399 443.838C283.706 442.099 282.86 439.868 282.86 437.145C282.86 434.56 283.672 432.375 285.296 430.59C286.921 428.783 288.946 427.879 291.371 427.879C293.911 427.879 295.924 428.771 297.411 430.556C298.899 432.341 299.642 434.583 299.642 437.283C299.642 437.626 299.631 437.935 299.608 438.209H285.537C285.72 440.017 286.395 441.458 287.562 442.534C288.751 443.586 290.158 444.112 291.783 444.112C293.911 444.112 295.775 443.277 297.377 441.607L299.024 443.083C297.034 445.302 294.597 446.412 291.714 446.412ZM285.537 436.082H296.965C296.805 434.366 296.233 432.947 295.249 431.826C294.288 430.682 292.973 430.11 291.302 430.11C289.792 430.11 288.5 430.67 287.424 431.792C286.349 432.913 285.72 434.343 285.537 436.082ZM336.9 446.721L333.743 443.838C331.592 445.554 329.064 446.412 326.158 446.412C322.589 446.412 319.66 445.199 317.372 442.774C315.084 440.349 313.94 437.42 313.94 433.988C313.94 430.579 315.095 427.662 317.406 425.236C319.717 422.788 322.657 421.564 326.227 421.564C329.796 421.564 332.724 422.777 335.012 425.202C337.3 427.627 338.444 430.556 338.444 433.988C338.444 437.077 337.483 439.765 335.562 442.053L338.753 444.696L336.9 446.721ZM326.227 443.906C328.331 443.906 330.173 443.3 331.752 442.088L327.29 438.278L329.109 436.253L333.537 440.269C334.932 438.461 335.63 436.368 335.63 433.988C335.63 431.22 334.726 428.874 332.919 426.952C331.134 425.03 328.881 424.07 326.158 424.07C323.435 424.07 321.181 425.03 319.397 426.952C317.635 428.851 316.754 431.197 316.754 433.988C316.754 436.756 317.647 439.102 319.431 441.024C321.239 442.946 323.504 443.906 326.227 443.906ZM344.162 446V421.976H354.493C357.444 421.976 359.721 422.777 361.322 424.378C362.558 425.614 363.176 427.216 363.176 429.183C363.176 431.105 362.581 432.661 361.391 433.851C360.201 435.04 358.623 435.818 356.655 436.184L364.034 446H360.705L353.738 436.665H346.874V446H344.162ZM346.874 434.228H354.253C356.083 434.228 357.57 433.782 358.714 432.89C359.858 431.997 360.43 430.773 360.43 429.218C360.43 427.73 359.881 426.575 358.783 425.751C357.707 424.905 356.209 424.481 354.287 424.481H346.874V434.228ZM367.797 437.077V434.297H377.338V437.077H367.797ZM382.527 446V428.257H385.17V438.484L394.883 428.257H398.143L390.73 435.944L398.349 446H395.226L388.911 437.866L385.17 441.71V446H382.527ZM416.723 443.701C414.939 445.508 412.731 446.412 410.1 446.412C407.468 446.412 405.272 445.508 403.51 443.701C401.771 441.893 400.902 439.708 400.902 437.145C400.902 434.606 401.783 432.432 403.544 430.625C405.329 428.794 407.537 427.879 410.168 427.879C412.799 427.879 414.996 428.783 416.758 430.59C418.519 432.398 419.4 434.583 419.4 437.145C419.4 439.685 418.508 441.87 416.723 443.701ZM410.168 444.044C412.067 444.044 413.623 443.38 414.836 442.053C416.071 440.726 416.689 439.09 416.689 437.145C416.689 435.224 416.048 433.588 414.767 432.238C413.509 430.888 411.953 430.213 410.1 430.213C408.2 430.213 406.645 430.888 405.432 432.238C404.219 433.565 403.613 435.201 403.613 437.145C403.613 439.067 404.242 440.703 405.501 442.053C406.759 443.38 408.315 444.044 410.168 444.044ZM421.579 450.427V443.666H423.501C425.08 440.76 425.869 436.654 425.869 431.345V428.257H438.499V443.666H441.176L440.764 450.427H438.567V446H424.222L423.741 450.427H421.579ZM426.315 443.666H435.856V430.59H428.409V433.061C428.409 437.523 427.711 441.058 426.315 443.666ZM204.526 479V461.257H207.169V468.91H217.396V461.257H220.039V479H217.396V471.244H207.169V479H204.526ZM231.228 479.378C229.42 479.378 227.864 478.886 226.56 477.902C225.256 476.918 224.604 475.545 224.604 473.783C224.604 471.93 225.29 470.5 226.663 469.493C228.036 468.487 229.878 467.983 232.189 467.983C234.019 467.983 235.827 468.235 237.611 468.738V468.189C237.611 466.633 237.154 465.444 236.238 464.62C235.323 463.796 234.031 463.384 232.36 463.384C230.621 463.384 228.825 463.808 226.972 464.654L226.183 462.492C228.379 461.485 230.53 460.982 232.635 460.982C235.152 460.982 237.062 461.634 238.366 462.938C239.602 464.174 240.22 465.913 240.22 468.155V479H237.611V476.357C236.033 478.371 233.905 479.378 231.228 479.378ZM231.743 477.25C233.39 477.25 234.786 476.804 235.93 475.911C237.074 475.019 237.646 473.875 237.646 472.479V470.832C235.907 470.328 234.179 470.077 232.463 470.077C230.839 470.077 229.569 470.409 228.654 471.072C227.739 471.713 227.281 472.594 227.281 473.715C227.281 474.79 227.704 475.648 228.551 476.289C229.42 476.929 230.484 477.25 231.743 477.25ZM254.493 479L265.442 454.804H267.981L278.929 479H276.012L273.198 472.651H260.122L257.273 479H254.493ZM261.186 470.214H272.134L266.677 457.962L261.186 470.214ZM291.629 479.412C287.785 479.412 284.445 478.119 281.608 475.534L283.221 473.646C285.646 475.934 288.46 477.078 291.663 477.078C293.196 477.078 294.512 476.655 295.61 475.808C296.708 474.939 297.258 473.818 297.258 472.445C297.258 470.958 296.663 469.848 295.473 469.116C294.283 468.384 292.716 468.018 290.771 468.018H288.128V465.787H290.771C292.51 465.787 293.917 465.386 294.992 464.586C296.091 463.762 296.64 462.652 296.64 461.257C296.64 460.021 296.125 459.003 295.095 458.202C294.089 457.378 292.796 456.967 291.217 456.967C288.517 456.967 286.161 457.87 284.147 459.678L282.569 457.79C283.827 456.715 285.131 455.914 286.481 455.388C287.854 454.862 289.455 454.598 291.286 454.598C293.665 454.598 295.61 455.205 297.12 456.417C298.63 457.63 299.385 459.163 299.385 461.016C299.385 463.739 297.921 465.627 294.992 466.679C296.525 467.137 297.749 467.857 298.665 468.841C299.58 469.825 300.037 471.072 300.037 472.582C300.037 474.527 299.248 476.151 297.669 477.456C296.114 478.76 294.1 479.412 291.629 479.412ZM316.468 479.412C313.013 479.412 310.142 478.222 307.854 475.843C305.566 473.44 304.422 470.489 304.422 466.988C304.422 463.533 305.577 460.604 307.888 458.202C310.199 455.777 313.093 454.564 316.571 454.564C318.584 454.564 320.3 454.896 321.719 455.559C323.137 456.2 324.522 457.161 325.872 458.442L324.087 460.364C321.776 458.168 319.259 457.07 316.536 457.07C313.882 457.07 311.663 458.019 309.878 459.918C308.117 461.817 307.236 464.174 307.236 466.988C307.236 469.779 308.128 472.136 309.913 474.058C311.697 475.957 313.905 476.906 316.536 476.906C318.092 476.906 319.465 476.62 320.655 476.048C321.845 475.476 323.057 474.607 324.293 473.44L326.077 475.328C324.728 476.678 323.309 477.696 321.822 478.382C320.335 479.069 318.55 479.412 316.468 479.412Z" fill="black"/>
<path d="M513 13C577 13 605 121 461 125" stroke="#6AB04C" stroke-width="4" stroke-dasharray="10 5"/>
<path d="M79.263 119C15.263 119 -38 221 106 225" stroke="#6AB04C" stroke-width="4" stroke-dasharray="10 5"/>
<path d="M98 324C34 324 -26 436 62 451" stroke="#6AB04C" stroke-width="4" stroke-dasharray="10 5"/>
<path d="M417 227C481 227 530 299 426.737 332" stroke="#6AB04C" stroke-width="4" stroke-dasharray="10 5"/>
<circle cx="560" cy="69" r="18" fill="#6AB04C"/>
<circle cx="18" cy="173" r="18" fill="#6AB04C"/>
<circle cx="483" cy="278" r="18" fill="#6AB04C"/>
<circle cx="18" cy="388" r="18" fill="#6AB04C"/>
<path d="M554.22 60.7813L559.995 59.145H563.969V79H558.592V64.2463L555.265 65.0025L554.22 60.7813Z" fill="white"/>
<path d="M9.935 183V178.889L17.305 173.251C18.2308 172.555 18.8817 171.94 19.2575 171.409C19.6425 170.868 19.835 170.3 19.835 169.704C19.835 169.09 19.6333 168.604 19.23 168.246C18.8358 167.889 18.3087 167.71 17.6487 167.71C17.0071 167.71 16.3929 167.903 15.8062 168.288C15.2196 168.673 14.5275 169.323 13.73 170.24L10.045 167.174C11.1725 165.707 12.3321 164.639 13.5237 163.97C14.7246 163.292 16.2371 162.953 18.0612 162.953C20.2154 162.953 21.9662 163.539 23.3137 164.713C24.6612 165.886 25.335 167.412 25.335 169.291C25.335 170.061 25.2387 170.763 25.0462 171.395C24.8629 172.018 24.5604 172.605 24.1387 173.155C23.7262 173.696 23.2633 174.195 22.75 174.654C22.2367 175.103 21.5767 175.612 20.77 176.18L17.3875 178.545H25.5275V183H9.935Z" fill="white"/>
<path d="M475.509 284.906L478.946 281.469C480.422 282.972 481.99 283.724 483.649 283.724C484.428 283.724 485.042 283.54 485.491 283.174C485.95 282.798 486.179 282.294 486.179 281.661C486.179 281.029 485.899 280.534 485.34 280.176C484.79 279.819 484.002 279.64 482.975 279.64H480.665L479.867 276.794L484.405 272.71H476.856V268.283H491.101V272.201L486.399 276.23C487.141 276.395 487.806 276.62 488.392 276.904C488.979 277.179 489.511 277.536 489.987 277.976C490.473 278.416 490.845 278.962 491.101 279.613C491.367 280.263 491.5 281.001 491.5 281.826C491.5 283.806 490.785 285.397 489.355 286.598C487.934 287.798 486.115 288.399 483.896 288.399C480.404 288.399 477.608 287.235 475.509 284.906Z" fill="white"/>
<path d="M7.37125 390.314L17.5875 378.145H23.1012V390.094H25.6175V394.164H23.1012V398H17.8075V394.164H8.265L7.37125 390.314ZM13.105 390.121H17.8075V384.456L13.105 390.121Z" fill="white"/>
</svg>
