<svg width="46" height="46" viewBox="0 0 46 46" fill="none" xmlns="http://www.w3.org/2000/svg">
<path d="M23 46C35.7025 46 46 35.7025 46 23C46 10.2975 35.7025 0 23 0C10.2975 0 0 10.2975 0 23C0 35.7025 10.2975 46 23 46Z" fill="white"/>
<path d="M10.5247 22.5017L32.7005 13.9514C33.7298 13.5796 34.6287 14.2025 34.2952 15.7588L34.2971 15.7569L30.5213 33.5455C30.2414 34.8067 29.492 35.1133 28.4436 34.5192L22.6936 30.2814L19.9202 32.9533C19.6135 33.2599 19.3548 33.5187 18.7606 33.5187L19.1688 27.6671L29.8255 18.0397C30.2893 17.6314 29.722 17.4014 29.1106 17.8078L15.9412 26.0993L10.264 24.3283C9.03159 23.9373 9.00476 23.0958 10.5247 22.5017Z" fill="#6AB04C"/>
</svg>
