<svg width="46" height="46" viewBox="0 0 46 46" fill="none" xmlns="http://www.w3.org/2000/svg">
<path d="M23 46C35.7025 46 46 35.7025 46 23C46 10.2975 35.7025 0 23 0C10.2975 0 0 10.2975 0 23C0 35.7025 10.2975 46 23 46Z" fill="white"/>
<path d="M34.5 27.7553C32.0189 27.7553 29.6528 27.2148 27.4706 26.1481C27.1285 25.9843 26.7318 25.9584 26.3695 26.082C26.0072 26.2085 25.7111 26.473 25.5444 26.8151L24.5094 28.957C21.4044 27.1745 18.8284 24.5956 17.043 21.4906L19.1877 20.4556C19.5327 20.2889 19.7944 19.9928 19.9209 19.6305C20.0445 19.2683 20.0215 18.8715 19.8548 18.5294C18.7853 16.3501 18.2448 13.984 18.2448 11.5C18.2448 10.7065 17.6008 10.0625 16.8073 10.0625H11.5C10.7065 10.0625 10.0625 10.7065 10.0625 11.5C10.0625 24.9751 21.0249 35.9375 34.5 35.9375C35.2935 35.9375 35.9375 35.2935 35.9375 34.5V29.1928C35.9375 28.3993 35.2935 27.7553 34.5 27.7553Z" fill="#6AB04C"/>
</svg>
