<svg width="44" height="47" viewBox="0 0 44 47" fill="none" xmlns="http://www.w3.org/2000/svg">
<path d="M42.7769 26.7765C44.1556 15.1715 42.1145 7.84491 38.4329 4.53112L38.4349 4.52919C32.4928 -1.12987 12.4251 -1.96747 5.31618 4.78336C2.1237 8.0856 0.999201 12.9321 0.875968 18.932C0.752736 24.9338 0.606398 36.1768 11.0831 39.2268H11.0927L11.0831 43.8846C11.0831 43.8846 11.0118 45.7716 12.2172 46.1509C13.5959 46.5977 14.2197 45.7216 18.5078 40.5997C25.6784 41.2216 31.1853 39.7968 31.8111 39.5888C33.2591 39.1036 41.4521 38.0195 42.7769 26.7765ZM19.2145 37.3225C19.2145 37.3225 14.6761 42.9816 13.2647 44.4507C12.8025 44.9282 12.2961 44.884 12.3038 43.9366C12.3038 43.3147 12.3385 36.2038 12.3385 36.2038C3.45615 33.6583 3.97988 24.0846 4.07616 19.0764C4.17243 14.0662 5.08897 9.96297 7.79238 7.19987C14.0291 1.35211 31.6224 2.65953 36.105 6.87253C41.585 11.7306 39.6345 25.4556 39.646 25.9235C38.5196 35.3084 31.8805 35.9034 30.6597 36.3097C30.1379 36.483 25.2952 37.7288 19.2145 37.3225Z" fill="white"/>
<path d="M21.724 8.29935C20.9826 8.29935 20.9826 9.45465 21.724 9.46428C27.4754 9.50856 32.2122 13.5175 32.2642 20.871C32.2642 21.6469 33.4002 21.6373 33.3906 20.8613H33.3887C33.3271 12.9379 28.1551 8.34363 21.724 8.29935Z" fill="white"/>
<path d="M29.2897 19.6521C29.2723 20.4185 30.4065 20.4551 30.4161 19.6791C30.5104 15.3101 27.8166 11.7113 22.7545 11.332C22.0132 11.2781 21.9361 12.443 22.6755 12.4969C27.0657 12.8301 29.3782 15.8261 29.2897 19.6521Z" fill="white"/>
<path d="M28.0778 24.6218C27.1266 24.0711 26.158 24.4139 25.7575 24.9549L24.9199 26.039C24.4944 26.5897 23.6992 26.5165 23.6992 26.5165C17.8957 24.9819 16.3437 18.9088 16.3437 18.9088C16.3437 18.9088 16.2725 18.0867 16.8039 17.6457L17.8514 16.7792C18.3752 16.3633 18.7063 15.3621 18.173 14.3781C16.7481 11.8037 15.7911 10.9161 15.304 10.2344C14.7918 9.59325 14.0216 9.44884 13.2206 9.88208H13.2033C11.5377 10.8564 9.71424 12.6798 10.2977 14.5572C11.2932 16.5366 13.1224 22.8465 18.9528 27.6141C21.6928 29.8688 26.029 32.1794 27.8698 32.7128L27.8871 32.7397C29.701 33.3444 31.4647 31.4497 32.4063 29.734V29.7206C32.8241 28.8907 32.6855 28.1051 32.0751 27.591C30.993 26.5358 29.3602 25.3708 28.0778 24.6218Z" fill="white"/>
<path d="M23.5487 15.6297C25.3991 15.7376 26.2964 16.7042 26.3927 18.6894C26.4273 19.4653 27.5537 19.4114 27.5191 18.6354C27.3959 16.0437 26.0441 14.5996 23.6103 14.4648C22.869 14.4205 22.7997 15.5854 23.5487 15.6297Z" fill="white"/>
</svg>
