<svg width="163" height="45" viewBox="0 0 163 45" fill="none" xmlns="http://www.w3.org/2000/svg">
<rect width="163" height="45" rx="22.5" fill="#6AB04C"/>
<path d="M61.1356 10.032C62.181 10.032 63.0303 10.2793 63.6836 10.774C64.3463 11.2687 64.6776 11.8987 64.6776 12.664C64.6776 13.7093 64.1503 14.4607 63.0956 14.918C64.3183 15.31 64.9296 16.08 64.9296 17.228C64.9296 18.0867 64.589 18.7913 63.9076 19.342C63.2356 19.8927 62.335 20.168 61.2056 20.168C60.207 20.168 59.367 20.0327 58.6856 19.762C58.0136 19.4913 57.4023 19.0807 56.8516 18.53L57.9996 17.032C58.849 17.8627 59.8896 18.278 61.1216 18.278C61.5976 18.278 61.9896 18.1753 62.2976 17.97C62.615 17.7553 62.7736 17.466 62.7736 17.102C62.7736 16.71 62.5963 16.4207 62.2416 16.234C61.8963 16.0473 61.425 15.954 60.8276 15.954H59.6936V14.162H60.7996C61.9663 14.162 62.5496 13.784 62.5496 13.028C62.5496 12.692 62.405 12.426 62.1156 12.23C61.8263 12.034 61.4436 11.936 60.9676 11.936C59.9036 11.936 59.0216 12.2953 58.3216 13.014L57.1876 11.642C58.2143 10.5687 59.5303 10.032 61.1356 10.032ZM65.9698 20L70.1698 10.13H72.1578L76.3578 20H74.1038L73.2078 17.802H69.0638L68.1678 20H65.9698ZM69.8338 15.898H72.4378L71.1358 12.72L69.8338 15.898ZM77.8703 20V10.2H80.1943L82.7703 14.344L85.3463 10.2H87.6703V20H85.5283V13.602L82.7703 17.788H82.7143L79.9843 13.644V20H77.8703ZM98.5086 18.698C97.5193 19.678 96.278 20.168 94.7846 20.168C93.2913 20.168 92.05 19.678 91.0606 18.698C90.0806 17.718 89.5906 16.5187 89.5906 15.1C89.5906 13.6907 90.0853 12.496 91.0746 11.516C92.0733 10.5267 93.3193 10.032 94.8126 10.032C96.306 10.032 97.5426 10.522 98.5226 11.502C99.512 12.482 100.007 13.6813 100.007 15.1C100.007 16.5093 99.5073 17.7087 98.5086 18.698ZM92.6846 17.284C93.2446 17.8813 93.954 18.18 94.8126 18.18C95.6713 18.18 96.376 17.886 96.9266 17.298C97.4773 16.7007 97.7526 15.968 97.7526 15.1C97.7526 14.2413 97.4726 13.5133 96.9126 12.916C96.3526 12.3187 95.6433 12.02 94.7846 12.02C93.926 12.02 93.2213 12.3187 92.6706 12.916C92.12 13.504 91.8446 14.232 91.8446 15.1C91.8446 15.9587 92.1246 16.6867 92.6846 17.284ZM101.919 20V10.2H106.469C107.598 10.2 108.452 10.4893 109.031 11.068C109.479 11.516 109.703 12.0807 109.703 12.762C109.703 13.686 109.274 14.3907 108.415 14.876C109.022 15.1093 109.479 15.4173 109.787 15.8C110.095 16.1733 110.249 16.6773 110.249 17.312C110.249 18.1893 109.922 18.8567 109.269 19.314C108.616 19.7713 107.72 20 106.581 20H101.919ZM104.019 14.162H106.007C107.043 14.162 107.561 13.8073 107.561 13.098C107.561 12.7713 107.44 12.524 107.197 12.356C106.954 12.1787 106.604 12.09 106.147 12.09H104.019V14.162ZM104.019 18.11H106.581C107.598 18.11 108.107 17.746 108.107 17.018C108.107 16.3087 107.575 15.954 106.511 15.954H104.019V18.11ZM120.465 10.2V20H118.337V13.574L114.053 20H112.023V10.2H114.151V16.626L118.463 10.2H120.465ZM125.105 20V12.188H122.123V10.2H130.243V12.188H127.261V20H125.105ZM140.344 10.2V20H138.216V13.574L133.932 20H131.902V10.2H134.03V16.626L138.342 10.2H140.344ZM67.6574 33V23.2H75.8334V33H73.6774V25.146H69.8134V33H67.6574ZM77.3448 33L81.5448 23.13H83.5328L87.7328 33H85.4788L84.5828 30.802H80.4388L79.5428 33H77.3448ZM81.2088 28.898H83.8128L82.5108 25.72L81.2088 28.898ZM90.5473 23.2H97.5473V33H95.3913V25.146H92.5633V25.888C92.5633 27.8013 92.4467 29.2853 92.2133 30.34C91.9893 31.3947 91.658 32.1227 91.2193 32.524C90.7807 32.9253 90.1693 33.126 89.3853 33.126C88.9467 33.126 88.5687 33.084 88.2513 33L88.3913 31.222C88.522 31.2407 88.634 31.25 88.7273 31.25C89.0447 31.25 89.3013 31.1847 89.4973 31.054C89.7027 30.914 89.8893 30.6387 90.0573 30.228C90.2347 29.8173 90.3607 29.206 90.4353 28.394C90.51 27.5727 90.5473 26.518 90.5473 25.23V23.2ZM108.338 23.2V33H106.21V26.574L101.926 33H99.8957V23.2H102.024V29.626L106.336 23.2H108.338ZM110.697 33V23.2H115.247C116.376 23.2 117.23 23.4893 117.809 24.068C118.257 24.516 118.481 25.0807 118.481 25.762C118.481 26.686 118.051 27.3907 117.193 27.876C117.799 28.1093 118.257 28.4173 118.565 28.8C118.873 29.1733 119.027 29.6773 119.027 30.312C119.027 31.1893 118.7 31.8567 118.047 32.314C117.393 32.7713 116.497 33 115.359 33H110.697ZM112.797 27.162H114.785C115.821 27.162 116.339 26.8073 116.339 26.098C116.339 25.7713 116.217 25.524 115.975 25.356C115.732 25.1787 115.382 25.09 114.925 25.09H112.797V27.162ZM112.797 31.11H115.359C116.376 31.11 116.885 30.746 116.885 30.018C116.885 29.3087 116.353 28.954 115.289 28.954H112.797V31.11ZM129.284 31.698C128.295 32.678 127.053 33.168 125.56 33.168C124.067 33.168 122.825 32.678 121.836 31.698C120.856 30.718 120.366 29.5187 120.366 28.1C120.366 26.6907 120.861 25.496 121.85 24.516C122.849 23.5267 124.095 23.032 125.588 23.032C127.081 23.032 128.318 23.522 129.298 24.502C130.287 25.482 130.782 26.6813 130.782 28.1C130.782 29.5093 130.283 30.7087 129.284 31.698ZM123.46 30.284C124.02 30.8813 124.729 31.18 125.588 31.18C126.447 31.18 127.151 30.886 127.702 30.298C128.253 29.7007 128.528 28.968 128.528 28.1C128.528 27.2413 128.248 26.5133 127.688 25.916C127.128 25.3187 126.419 25.02 125.56 25.02C124.701 25.02 123.997 25.3187 123.446 25.916C122.895 26.504 122.62 27.232 122.62 28.1C122.62 28.9587 122.9 29.6867 123.46 30.284Z" fill="white"/>
<g clip-path="url(#clip0)">
<path d="M22.1548 31.142H22.5441C22.5402 31.087 22.5402 31.0319 22.5441 30.977V10.1906C22.5441 9.55277 23.0611 9.03575 23.6989 9.03575H34.983C35.6208 9.03575 36.1378 9.55277 36.1378 10.1906V18.7691C37.2122 19.0297 38.1524 19.6784 38.7773 20.5904C39.5438 21.6946 39.7807 23.0821 39.424 24.3781C38.9489 26.1994 38.8895 28.6146 39.8728 29.6176C40.4389 30.1194 41.2352 30.269 41.9448 30.007C42.7081 29.8861 43.3599 29.3905 43.6803 28.6872C44.7295 26.2654 42.1098 21.6858 42.1032 21.666C41.9448 21.4284 38.2956 15.76 42.024 12.4276C42.1758 12.2692 45.7722 8.46825 48.5503 8.83778C48.8327 8.87424 49.0322 9.13275 48.9957 9.41518C48.9592 9.69762 48.7007 9.89707 48.4183 9.86061C47.7507 9.82052 47.0852 9.96916 46.498 10.2895L47.2371 11.1804C47.6377 11.6767 47.56 12.4037 47.0636 12.8043C47.0556 12.8108 47.0474 12.8172 47.0391 12.8235L44.558 14.8032C44.354 14.9667 44.1001 15.0552 43.8387 15.0539H43.7397C43.4355 15.0196 43.1575 14.8652 42.9676 14.625L42.2484 13.7209C40.0179 16.5717 42.9082 21.1117 42.9808 21.1843C43.0996 21.3888 45.8711 26.239 44.6305 29.1029C44.1719 30.0974 43.2498 30.7995 42.1692 30.977C41.8363 31.0577 41.4953 31.0997 41.1529 31.1024C40.413 31.1246 39.6967 30.8405 39.1733 30.3171C37.8535 28.9379 37.9591 26.1268 38.4738 24.134C39.0213 22.2995 37.983 20.3675 36.151 19.8117V30.977C36.155 31.0319 36.155 31.087 36.151 31.142H36.4809C37.1186 31.1274 37.6473 31.6324 37.6618 32.27C37.6621 32.279 37.6621 32.2879 37.6621 32.2968V34.0323C37.6623 34.6701 37.1454 35.1872 36.5077 35.1874C36.4988 35.1874 36.4898 35.1873 36.4809 35.1871H22.1548C21.517 35.1871 21 34.6701 21 34.0323V32.2968C21 31.6591 21.517 31.142 22.1548 31.142ZM43.0072 13.1073L43.7397 14.0113C43.7677 14.0453 43.8081 14.0666 43.8519 14.0707C43.8943 14.0762 43.9372 14.0643 43.9707 14.0377L46.4518 12.058C46.5147 11.9939 46.5147 11.8912 46.4518 11.8271L45.7194 10.9164C45.6914 10.8824 45.651 10.8611 45.6072 10.857C45.5648 10.8515 45.5219 10.8635 45.4884 10.89L43.0072 12.8697C42.9727 12.8972 42.9511 12.9378 42.9478 12.9819C42.9482 13.0304 42.9699 13.0762 43.0072 13.1073ZM35.1612 10.1906C35.1612 10.0994 35.0873 10.0256 34.9962 10.0256H23.6857C23.5946 10.0256 23.5208 10.0994 23.5208 10.1906V30.977C23.5208 31.0681 23.5946 31.142 23.6857 31.142H34.983C35.0738 31.1492 35.1533 31.0815 35.1607 30.9907C35.161 30.9862 35.1612 30.9815 35.1612 30.977V10.1906ZM21.9634 34.0323C21.9634 34.1234 22.0372 34.1972 22.1284 34.1972H36.4809C36.5721 34.1972 36.6459 34.1234 36.6459 34.0323V32.2968C36.6459 32.2056 36.5721 32.1318 36.4809 32.1318H22.1548C22.0649 32.1172 21.9801 32.1783 21.9656 32.2682C21.964 32.2776 21.9633 32.2872 21.9634 32.2968V34.0323Z" fill="white"/>
<path d="M25.9228 11.5961H32.7593C33.397 11.5961 33.9141 12.1132 33.9141 12.7509V19.594C33.9141 20.2317 33.397 20.7488 32.7593 20.7488H25.9228C25.2851 20.7488 24.768 20.2317 24.768 19.594V12.7509C24.768 12.1132 25.2851 11.5961 25.9228 11.5961ZM25.7579 19.6006C25.7614 19.6891 25.8342 19.759 25.9228 19.7589H32.7593C32.8504 19.7589 32.9242 19.6851 32.9242 19.594V12.7509C32.9242 12.6598 32.8504 12.586 32.7593 12.586H25.9228C25.8317 12.586 25.7579 12.6598 25.7579 12.7509V19.6006Z" fill="white"/>
<path d="M26.6947 22.6163H31.9738C32.2472 22.6163 32.4688 22.8379 32.4688 23.1112C32.4688 23.3846 32.2472 23.6062 31.9738 23.6062H26.6947C26.4214 23.6062 26.1998 23.3846 26.1998 23.1112C26.1998 22.8379 26.4214 22.6163 26.6947 22.6163Z" fill="white"/>
</g>
<defs>
<clipPath id="clip0">
<rect width="28" height="28" fill="white" transform="matrix(-1 0 0 1 49 8)"/>
</clipPath>
</defs>
</svg>
