<svg width="140" height="55" viewBox="0 0 140 55" fill="none" xmlns="http://www.w3.org/2000/svg">
<path d="M1.10816 5.46838L15.7731 9.78853C16.2283 9.92194 16.6511 10.1481 17.0149 10.4522L21.4739 14.167L25.2269 10.1409L19.0642 5.13361C18.909 5.00733 18.7298 4.91294 18.5381 4.85673L2.66455 0.182503C2.28028 0.0692343 1.86664 0.113283 1.51466 0.305001C1.16269 0.496719 0.901335 0.820164 0.788066 1.20486L0.0870581 3.59399C-0.14787 4.39316 0.308981 5.23219 1.10816 5.46838Z" fill="#6AB04C"/>
<path d="M23.2927 15.681C23.4668 15.8262 23.5855 16.0271 23.6283 16.2495L30.4517 51.7148C30.6816 52.9116 31.4443 53.9382 32.5241 54.5037C33.6035 55.0692 34.8818 55.1116 35.9964 54.6195L46.1994 50.1114C46.4419 50.0044 46.718 49.9998 46.9638 50.0992C47.2096 50.1986 47.4051 50.3929 47.5054 50.6387C47.6367 50.9605 47.8909 51.2172 48.2114 51.3515C48.5324 51.4861 48.8931 51.4874 49.2149 51.3557L54.1861 49.316C54.8557 49.042 55.1762 48.2769 54.9018 47.6077L45.6222 24.964C45.4817 24.6213 45.5463 24.2286 45.7892 23.9488L46.8551 22.7175C47.3997 22.087 47.3313 21.1347 46.702 20.5885L36.3472 11.6168C36.0434 11.355 35.6482 11.2245 35.2485 11.2543C34.8487 11.2841 34.477 11.4712 34.2152 11.7749L31.91 14.4418C31.5592 14.8487 30.9468 14.8986 30.5352 14.5538L26.7432 11.394L22.9814 15.4277L23.2927 15.681ZM35.8609 51.4685C35.2262 51.7479 34.4975 51.716 33.8896 51.3821C33.2818 51.0482 32.8639 50.4504 32.7591 49.7649L30.4614 34.5848C30.2856 33.4336 30.544 32.2581 31.1871 31.2874L33.747 33.3103C34.7505 34.0931 35.4993 35.1566 35.8983 36.3656L40.317 49.5006L35.8609 51.4685ZM34.2899 29.2334L35.7628 28.9691C38.0625 28.5698 40.3111 29.9021 41.065 32.1113L45.7782 46.1143C45.941 46.5959 45.709 47.1215 45.2442 47.3267L42.1264 48.7043L37.763 35.7481C37.2437 34.1724 36.2674 32.7871 34.9586 31.7677L32.5921 29.8929C33.1119 29.5649 33.6904 29.3408 34.2957 29.2334H34.2899ZM28.9377 22.3501L30.3288 28.2417C30.4517 28.7686 30.1245 29.2959 29.5976 29.4197C29.5233 29.4377 29.4478 29.4466 29.3715 29.4461C28.9163 29.4461 28.5207 29.1332 28.4162 28.6902L27.0247 22.7989C26.9442 22.457 27.052 22.0983 27.3075 21.8575C27.563 21.6172 27.9275 21.5307 28.264 21.6318C28.6 21.7329 28.8567 22.0056 28.9377 22.3471V22.3501ZM26.1882 16.4693C26.7134 16.3355 27.2479 16.6522 27.3821 17.1774L27.8734 19.1009C28.0072 19.6266 27.6896 20.161 27.1644 20.2949C27.0847 20.3158 27.0029 20.3259 26.9207 20.3255C26.4726 20.3251 26.0812 20.0213 25.9705 19.5871L25.4813 17.6666C25.4159 17.4136 25.4541 17.1456 25.587 16.9207C25.7205 16.6963 25.9373 16.5339 26.1903 16.4693H26.1882Z" fill="#6AB04C"/>
<path d="M4.91244 29.9403C6.22761 29.9856 7.50294 29.483 8.43384 28.5521C9.36474 27.6217 9.86732 26.3463 9.82159 25.0307C9.82159 22.7586 6.64335 17.701 4.91244 15.7024C3.18236 17.6997 0.00286678 22.7574 0.00286678 25.0307C-0.0428603 26.3463 0.460137 27.6217 1.39062 28.5521C2.32152 29.483 3.59684 29.9856 4.91244 29.9403Z" fill="#6AB04C"/>
<path d="M69.5967 10.2256V5.79492H85.5674V10.2256H80.0957V24H75.0557V10.2256H69.5967ZM87.8779 24V5.79492H92.9561V24H87.8779ZM96.2822 24V5.79492H100.992L108.47 15.418V5.79492H113.472V24H109.054L101.271 14.0215V24H96.2822ZM115.033 5.79492H120.784L124.517 12.4346L128.287 5.79492H133.937L127.018 17.1064V24H121.952V17.1826L115.033 5.79492ZM70.6123 53V34.7949H85.1738V39.2256H75.6523V42.3105H84.2598V46.5H75.6523V53H70.6123ZM87.2432 45.0146V34.7949H92.3594V44.9131C92.3594 46.1911 92.6556 47.1559 93.248 47.8076C93.8405 48.4593 94.6615 48.7852 95.7109 48.7852C96.7604 48.7852 97.5814 48.472 98.1738 47.8457C98.7663 47.2194 99.0625 46.2842 99.0625 45.04V34.7949H104.191V44.8877C104.191 46.335 103.993 47.6003 103.595 48.6836C103.197 49.7669 102.621 50.6471 101.868 51.3242C101.115 52.0013 100.218 52.5091 99.1768 52.8477C98.1442 53.1777 96.972 53.3428 95.6602 53.3428C92.9941 53.3428 90.9248 52.653 89.4521 51.2734C87.9795 49.8854 87.2432 47.7992 87.2432 45.0146ZM107.175 53V34.7949H121.812V39.0859H112.164V41.8408H120.898V45.8271H112.164V48.709H121.939V53H107.175ZM124.517 53V34.7949H129.557V48.582H138.38V53H124.517Z" fill="#1E1E1E"/>
</svg>
